<?xml version="1.0" standalone="no"?>
<!DOCTYPE svg PUBLIC "-//W3C//DTD SVG 20010904//EN"
 "http://www.w3.org/TR/2001/REC-SVG-20010904/DTD/svg10.dtd">
<svg version="1.0" xmlns="http://www.w3.org/2000/svg"
 width="360.000000pt" height="360.000000pt" viewBox="0 0 360.000000 360.000000"
 preserveAspectRatio="xMidYMid meet">

<g transform="translate(0.000000,360.000000) scale(0.100000,-0.100000)"
fill="#000000" stroke="none">
<path d="M1501 3450 c-185 -39 -309 -218 -279 -405 45 -281 375 -397 590 -206
154 137 152 386 -5 526 -78 71 -204 106 -306 85z"/>
<path d="M1425 2516 c-92 -29 -149 -78 -187 -161 l-23 -50 0 -525 0 -525 24
-52 c31 -69 102 -135 170 -158 99 -32 153 -21 440 94 140 56 257 98 261 94 4
-4 50 -127 101 -273 57 -161 104 -276 119 -294 100 -119 295 -58 307 96 4 47
-7 84 -95 333 -139 390 -138 388 -179 429 -61 61 -104 68 -306 51 -95 -8 -193
-17 -219 -20 l-48 -6 0 346 0 345 470 0 c515 0 513 0 563 59 37 45 43 89 19
144 -15 34 -31 51 -61 66 -39 21 -53 21 -678 20 -485 0 -648 -3 -678 -13z"/>
<path d="M1225 905 c-5 -52 -11 -68 -28 -79 -12 -8 -143 -69 -291 -137 -241
-111 -272 -127 -297 -162 -16 -22 -31 -55 -35 -74 -22 -115 103 -233 214 -204
37 10 605 268 692 314 69 37 97 84 120 205 11 56 20 108 20 115 0 9 -32 12
-118 12 -114 0 -119 1 -187 35 -39 19 -73 36 -76 38 -4 2 -10 -27 -14 -63z"/>
<path d="M2479 587 c-109 -31 -203 -116 -240 -218 -16 -42 -27 -59 -40 -59
-21 0 -59 -45 -59 -72 0 -10 11 -30 25 -43 l24 -25 381 0 381 0 24 25 c14 13
25 36 25 50 0 30 -32 65 -60 65 -11 0 -20 6 -20 13 0 29 -52 120 -95 166 -83
89 -230 131 -346 98z"/>
</g>
</svg>
