<?xml version="1.0" encoding="UTF-8"?>
<!-- Created with Inkscape (http://www.inkscape.org/) -->

<svg
   version="1.1"
   id="svg1"
   width="661.82465"
   height="960.66803"
   viewBox="0 0 661.82465 960.66803"
   sodipodiDocname="LAM JO LOGO.jpeg"
   xmlnsInkscape="http://www.inkscape.org/namespaces/inkscape"
   xmlnsSodipodi="http://sodipodi.sourceforge.net/DTD/sodipodi-0.dtd"
   xmlns="http://www.w3.org/2000/svg"
   xmlnsSvg="http://www.w3.org/2000/svg">
  <defs
     id="defs1" />
  <sodipodiNamedview
     id="namedview1"
     pagecolor="#ffffff"
     bordercolor="#000000"
     borderopacity="0.25"
     inkscapeShowpageshadow="2"
     inkscapePageopacity="0.0"
     inkscapePagecheckerboard="0"
     inkscapeDeskcolor="#d1d1d1" />
  <g
     inkscapeGroupmode="layer"
     inkscapeLabel="Image"
     id="g1"
     transform="translate(-701.32794,-2.6729181)">
    <path
       style="fill:#1a1a1a;stroke-width:1.9"
       d="M 701.32792,485.24201 1032.2606,2.672918 1363.1526,481.99592 1031.7254,963.34094 Z"
       id="path1" />
    <path
       style="fill:#ffffff;stroke-width:1.9"
       d="M 1031.2254,922.25426 1335.1892,481.42191 1031.9785,43.082246 727.65228,484.53088 Z"
       id="path2" />
    <path
       style="fill:#1a1a1a;stroke-width:1.9"
       d="m 1034.1692,898.6178 -67.53913,-104.18056 10.60422,-7.01895 60.15831,65.76591 96.0298,-145.16515 -72.032,0.79006 0.5161,-218.64043 108.1966,-0.95534 0.5921,-7.45102 84.5044,0.0946 1.6719,6.21742 45.5164,0.61587 -84.999,131.8765 -111.7873,0.0471 0.01,16.63806 93.0111,0.36 -19.9883,32.16889 -74.0289,-0.0614 2.3237,18.47007 62.9717,1.99823 z"
       id="path9" />
    <path
       style="fill:#1a1a1a;stroke-width:1.9"
       d="m 1058.7734,464.93222 -0.4275,-81.16754 -54.9628,0.33121 -0.866,82.08109 -236.98767,-0.0326 89.50902,-132.8699 12.25631,0.24277 -50.22931,99.23343 144.08732,-0.26335 -0.26444,-48.67932 -78.26722,-0.48091 36.82693,-49.86468 83.20176,0.93091 0.5257,-15.95049 -73.64786,-1.23863 33.07745,-43.61433 40.21661,0.16741 -0.1135,-28.27975 -39.33122,-1.1776 -86.68447,73.52926 -13.75284,-0.67283 73.81235,-107.53879 65.48168,0.0494 -0.1712,-19.77146 -51.33799,-1.73709 80.12729,-117.919813 81.3722,116.538043 -54.805,0.11964 0.1492,21.59914 68.4635,-0.0225 71.6265,105.88643 -14.0672,1.28046 -86.289,-72.52075 -39.7451,0.86489 0.1243,28.9063 37.6307,0.14891 34.9806,43.16052 -71.9636,0.0401 -0.3506,15.8961 86.3299,-0.15159 41.4002,49.83136 -87.2496,0.67547 4.0903,49.39918 143.6818,-0.97927 -49.7796,-98.33559 14.8726,0.10201 90.1479,130.73937 z"
       id="path3" />
    <path
       style="fill:#1a1a1a;stroke-width:1.9"
       d="m 809.85751,566.85802 -10.23096,-50.35118 161.76547,-1.5562 0.51055,21.85889 42.68703,-17.91052 -0.1296,-27.56113 -113.20372,0.32611 -0.69721,-7.81543 -82.37274,0.55668 -0.98205,6.67726 -57.68919,1.41093 z"
       id="path4" />
    <path
       style="fill:#1a1a1a;stroke-width:1.9"
       d="m 816.63441,588.7285 36.85152,-48.43419 -18.20096,-11.32439 -23.86651,54.23368 z"
       id="path5" />
    <path
       style="fill:#1a1a1a;stroke-width:1.9"
       d="m 821.86908,596.47124 25.15873,-18.55075 120.50501,195.72469 -10.00359,5.33238 z"
       id="path6" />
    <path
       style="fill:#1a1a1a;stroke-width:1.9"
       d="m 848.65611,556.78529 60.34349,-2.38754 -6.73781,-17.94376 39.24243,0.0337 6.5113,17.35199 55.76628,-0.14395 0.5997,24.41324 -44.267,-0.81804 4.83786,16.04118 39.68554,-0.1636 0.4846,30.81206 -31.76708,0.24339 4.92987,15.65794 25.90971,0.63846 0.2779,28.72191 -20.16749,0.4114 4.11486,13.9624 16.73513,0.21236 -0.1229,21.78217 -53.58156,0.27859 -14.4859,-20.55853 23.33328,-0.33411 -5.92632,-16.03756 -27.87407,0.45476 -21.46938,-29.85246 40.941,-0.15422 -7.11401,-14.6534 -43.96779,-0.11214 -18.89811,-29.04433 52.63968,-0.38866 -5.29678,-14.69955 -57.67098,0.91027 z"
       id="path7" />
    <path
       style="fill:#1a1a1a;stroke-width:1.9"
       d="m 967.28163,727.40551 69.91737,100.48096 68.5299,-101.53623 z"
       id="path8" />
    <path
       style="fill:#ffffff;stroke-width:1.9"
       d="m 1105.2687,588.0856 0.3971,-17.07586 86.1117,0.12098 20.3116,-32.20399 -101.4472,1.05612 -0.1864,-19.64607 130.2873,0.20826 -38.1751,68.3686 z"
       id="path10" />
  </g>
</svg>
