<?xml version="1.0" encoding="UTF-8"?>
<!-- Created with Inkscape (http://www.inkscape.org/) -->

<svg
   version="1.1"
   id="svg1"
   width="284.6214"
   height="311.00751"
   viewBox="0 0 284.6214 311.0075"
   sodipodiDocname="logos Wing-Sanda.pdf"
   xmlnsInkscape="http://www.inkscape.org/namespaces/inkscape"
   xmlnsSodipodi="http://sodipodi.sourceforge.net/DTD/sodipodi-0.dtd"
   xmlns="http://www.w3.org/2000/svg"
   xmlnsSvg="http://www.w3.org/2000/svg">
  <defs
     id="defs1">
    <clipPath
       clipPathUnits="userSpaceOnUse"
       id="clipPath144">
      <path
         d="M 0,841.89 H 595.28 V 0 H 0 Z"
         transform="translate(-74.763702,-203.4229)"
         id="path144" />
    </clipPath>
    <clipPath
       clipPathUnits="userSpaceOnUse"
       id="clipPath146">
      <path
         d="M 0,841.89 H 595.28 V 0 H 0 Z"
         transform="translate(-80.0947,-187.2187)"
         id="path146" />
    </clipPath>
    <clipPath
       clipPathUnits="userSpaceOnUse"
       id="clipPath148">
      <path
         d="M 0,841.89 H 595.28 V 0 H 0 Z"
         transform="translate(-88.1362,-187.8262)"
         id="path148" />
    </clipPath>
    <clipPath
       clipPathUnits="userSpaceOnUse"
       id="clipPath150">
      <path
         d="M 0,841.89 H 595.28 V 0 H 0 Z"
         transform="translate(-100.95651,-178.1553)"
         id="path150" />
    </clipPath>
    <clipPath
       clipPathUnits="userSpaceOnUse"
       id="clipPath152">
      <path
         d="M 0,841.89 H 595.28 V 0 H 0 Z"
         transform="translate(-109.1133,-175.4893)"
         id="path152" />
    </clipPath>
    <clipPath
       clipPathUnits="userSpaceOnUse"
       id="clipPath154">
      <path
         d="M 0,841.89 H 595.28 V 0 H 0 Z"
         transform="translate(-113.65281,-184.873)"
         id="path154" />
    </clipPath>
    <clipPath
       clipPathUnits="userSpaceOnUse"
       id="clipPath156">
      <path
         d="M 0,841.89 H 595.28 V 0 H 0 Z"
         transform="translate(-128.1733,-182.5986)"
         id="path156" />
    </clipPath>
    <clipPath
       clipPathUnits="userSpaceOnUse"
       id="clipPath158">
      <path
         d="M 0,841.89 H 595.28 V 0 H 0 Z"
         transform="translate(-144.6543,-179.22171)"
         id="path158" />
    </clipPath>
    <clipPath
       clipPathUnits="userSpaceOnUse"
       id="clipPath160">
      <path
         d="M 0,841.89 H 595.28 V 0 H 0 Z"
         transform="translate(-148.9189,-170.4043)"
         id="path160" />
    </clipPath>
    <clipPath
       clipPathUnits="userSpaceOnUse"
       id="clipPath162">
      <path
         d="M 0,841.89 H 595.28 V 0 H 0 Z"
         transform="translate(-168.6792,-169.9258)"
         id="path162" />
    </clipPath>
    <clipPath
       clipPathUnits="userSpaceOnUse"
       id="clipPath164">
      <path
         d="M 0,841.89 H 595.28 V 0 H 0 Z"
         transform="translate(-177.8262,-181.1152)"
         id="path164" />
    </clipPath>
    <clipPath
       clipPathUnits="userSpaceOnUse"
       id="clipPath166">
      <path
         d="M 0,841.89 H 595.28 V 0 H 0 Z"
         transform="translate(-190.0635,-183.166)"
         id="path166" />
    </clipPath>
    <clipPath
       clipPathUnits="userSpaceOnUse"
       id="clipPath168">
      <path
         d="M 0,841.89 H 595.28 V 0 H 0 Z"
         transform="translate(-206.61961,-176.34861)"
         id="path168" />
    </clipPath>
    <clipPath
       clipPathUnits="userSpaceOnUse"
       id="clipPath170">
      <path
         d="M 0,841.89 H 595.28 V 0 H 0 Z"
         transform="translate(-213.04741,-185.34771)"
         id="path170" />
    </clipPath>
    <clipPath
       clipPathUnits="userSpaceOnUse"
       id="clipPath172">
      <path
         d="M 0,841.89 H 595.28 V 0 H 0 Z"
         transform="translate(-233.60641,-199.29201)"
         id="path172" />
    </clipPath>
    <clipPath
       clipPathUnits="userSpaceOnUse"
       id="clipPath174">
      <path
         d="M 0,841.89 H 595.28 V 0 H 0 Z"
         transform="translate(-237.62011,-201.59571)"
         id="path174" />
    </clipPath>
    <clipPath
       clipPathUnits="userSpaceOnUse"
       id="clipPath176">
      <path
         d="M 0,841.89 H 595.28 V 0 H 0 Z"
         transform="translate(-93.685105,-162.74511)"
         id="path176" />
    </clipPath>
    <clipPath
       clipPathUnits="userSpaceOnUse"
       id="clipPath178">
      <path
         d="M 0,841.89 H 595.28 V 0 H 0 Z"
         transform="translate(-114.23781,-145.7344)"
         id="path178" />
    </clipPath>
    <clipPath
       clipPathUnits="userSpaceOnUse"
       id="clipPath180">
      <path
         d="M 0,841.89 H 595.28 V 0 H 0 Z"
         transform="translate(-164.76711,-162.6621)"
         id="path180" />
    </clipPath>
    <clipPath
       clipPathUnits="userSpaceOnUse"
       id="clipPath182">
      <path
         d="M 0,841.89 H 595.28 V 0 H 0 Z"
         transform="translate(-197.22711,-139.66311)"
         id="path182" />
    </clipPath>
    <clipPath
       clipPathUnits="userSpaceOnUse"
       id="clipPath184">
      <path
         d="M 0,841.89 H 595.28 V 0 H 0 Z"
         transform="translate(-220.18461,-149.7148)"
         id="path184" />
    </clipPath>
    <clipPath
       clipPathUnits="userSpaceOnUse"
       id="clipPath186">
      <path
         d="M 0,841.89 H 595.28 V 0 H 0 Z"
         transform="translate(-66.920902,-326.17871)"
         id="path186" />
    </clipPath>
    <clipPath
       clipPathUnits="userSpaceOnUse"
       id="clipPath188">
      <path
         d="M 0,841.89 H 595.28 V 0 H 0 Z"
         transform="translate(-85.7803,-341.97561)"
         id="path188" />
    </clipPath>
    <clipPath
       clipPathUnits="userSpaceOnUse"
       id="clipPath190">
      <path
         d="M 0,841.89 H 595.28 V 0 H 0 Z"
         transform="translate(-101.3779,-331.36621)"
         id="path190" />
    </clipPath>
    <clipPath
       clipPathUnits="userSpaceOnUse"
       id="clipPath192">
      <path
         d="M 0,841.89 H 595.28 V 0 H 0 Z"
         transform="translate(-124.396,-354.39751)"
         id="path192" />
    </clipPath>
    <clipPath
       clipPathUnits="userSpaceOnUse"
       id="clipPath194">
      <path
         d="M 0,841.89 H 595.28 V 0 H 0 Z"
         transform="translate(-144.2485,-357.35641)"
         id="path194" />
    </clipPath>
    <clipPath
       clipPathUnits="userSpaceOnUse"
       id="clipPath196">
      <path
         d="M 0,841.89 H 595.28 V 0 H 0 Z"
         transform="translate(-177.9385,-340.61131)"
         id="path196" />
    </clipPath>
    <clipPath
       clipPathUnits="userSpaceOnUse"
       id="clipPath198">
      <path
         d="M 0,841.89 H 595.28 V 0 H 0 Z"
         transform="translate(-197.8477,-346.00291)"
         id="path198" />
    </clipPath>
    <clipPath
       clipPathUnits="userSpaceOnUse"
       id="clipPath200">
      <path
         d="M 0,841.89 H 595.28 V 0 H 0 Z"
         transform="translate(-215.72851,-331.71581)"
         id="path200" />
    </clipPath>
    <clipPath
       clipPathUnits="userSpaceOnUse"
       id="clipPath202">
      <path
         d="M 0,841.89 H 595.28 V 0 H 0 Z"
         transform="translate(-219.10351,-350.76371)"
         id="path202" />
    </clipPath>
    <clipPath
       clipPathUnits="userSpaceOnUse"
       id="clipPath204">
      <path
         d="M 0,841.89 H 595.28 V 0 H 0 Z"
         transform="translate(-225.25491,-327.73341)"
         id="path204" />
    </clipPath>
    <clipPath
       clipPathUnits="userSpaceOnUse"
       id="clipPath206">
      <path
         d="M 0,841.89 H 595.28 V 0 H 0 Z"
         transform="translate(-247.75,-325.27541)"
         id="path206" />
    </clipPath>
    <clipPath
       clipPathUnits="userSpaceOnUse"
       id="clipPath208">
      <path
         d="M 0,841.89 H 595.28 V 0 H 0 Z"
         transform="translate(-151.29741,-240.23541)"
         id="path208" />
    </clipPath>
    <clipPath
       clipPathUnits="userSpaceOnUse"
       id="clipPath210">
      <path
         d="M 0,841.89 H 595.28 V 0 H 0 Z"
         transform="translate(-158.9302,-208.80471)"
         id="path210" />
    </clipPath>
    <clipPath
       clipPathUnits="userSpaceOnUse"
       id="clipPath212">
      <path
         d="M 0,841.89 H 595.28 V 0 H 0 Z"
         transform="translate(-177.8188,-192.5898)"
         id="path212" />
    </clipPath>
    <clipPath
       clipPathUnits="userSpaceOnUse"
       id="clipPath214">
      <path
         d="M 0,841.89 H 595.28 V 0 H 0 Z"
         transform="translate(-210.45261,-314.46971)"
         id="path214" />
    </clipPath>
  </defs>
  <sodipodiNamedview
     id="namedview1"
     pagecolor="#ffffff"
     bordercolor="#000000"
     borderopacity="0.25"
     inkscapeShowpageshadow="2"
     inkscapePageopacity="0.0"
     inkscapePagecheckerboard="0"
     inkscapeDeskcolor="#d1d1d1" />
  <g
     id="layer-MC0"
     inkscapeGroupmode="layer"
     inkscapeLabel="Capa 1"
     transform="translate(-69.005203,-636.99238)">
    <path
       id="path143"
       d="m 0,0 c -2.023,-3.223 -4.066,-6.438 -6.126,-9.647 1.062,-0.666 2.131,-1.323 3.209,-1.962 1.989,3.255 3.96,6.514 5.914,9.782 C 1.992,-1.23 0.992,-0.622 0,0"
       style="fill:#231f20;fill-opacity:1;fill-rule:nonzero;stroke:none"
       transform="matrix(1.3333333,0,0,-1.3333333,99.684933,851.28947)"
       clip-path="url(#clipPath144)" />
    <path
       id="path145"
       d="M 0,0 C 0.85,-0.44 1.704,-0.874 2.56,-1.3 4.306,2.091 6.036,5.487 7.749,8.89 7.398,9.063 7.048,9.24 6.699,9.417 5.511,7.101 4.314,4.785 3.111,2.475 2.599,5.655 2.176,8.828 1.838,11.985 1.19,12.345 0.544,12.706 -0.098,13.075 -2,9.776 -3.917,6.482 -5.853,3.195 -5.487,2.985 -5.122,2.777 -4.754,2.572 -3.545,4.663 -2.343,6.753 -1.147,8.849 -0.838,5.907 -0.457,2.958 0,0"
       style="fill:#231f20;fill-opacity:1;fill-rule:nonzero;stroke:none"
       transform="matrix(1.3333333,0,0,-1.3333333,106.79293,872.89507)"
       clip-path="url(#clipPath146)" />
    <path
       id="path147"
       d="M 0,0 C -0.584,0.144 -1.167,0.289 -1.751,0.439 -1.896,0.216 -2.007,0.025 -2.086,-0.136 -3.065,-2.095 -2.12,-3.794 0.813,-5.104 2.136,-5.693 3.34,-5.849 4.401,-5.583 5.463,-5.317 6.202,-4.678 6.625,-3.68 7.348,-1.974 6.488,-0.134 4.168,1.924 2.967,2.995 2.53,3.852 2.822,4.472 3.213,5.3 4.018,5.428 5.247,4.878 6.806,4.187 7.33,3.25 6.8,2.028 6.717,1.841 6.582,1.62 6.392,1.365 6.938,1.237 7.485,1.109 8.033,0.984 8.913,3.071 8.124,4.604 5.713,5.671 4.537,6.192 3.463,6.343 2.473,6.114 1.482,5.887 0.757,5.318 0.305,4.395 -0.493,2.77 0.02,1.043 1.933,-0.729 3.256,-1.956 3.783,-2.901 3.473,-3.598 3.057,-4.529 2.173,-4.711 0.834,-4.112 -0.837,-3.362 -1.353,-2.33 -0.733,-1.053 -0.578,-0.73 -0.333,-0.382 0,0"
       style="fill:#231f20;fill-opacity:1;fill-rule:nonzero;stroke:none"
       transform="matrix(1.3333333,0,0,-1.3333333,117.51493,872.08507)"
       clip-path="url(#clipPath148)" />
    <path
       id="path149"
       d="M 0,0 C 1.193,3.213 2.376,6.432 3.55,9.649 4.484,9.318 5.421,8.996 6.362,8.683 6.486,9.046 6.61,9.405 6.733,9.766 3.691,10.783 0.679,11.893 -2.297,13.093 -2.443,12.739 -2.589,12.387 -2.736,12.033 -1.81,11.659 -0.881,11.295 0.051,10.938 -1.199,7.748 -2.459,4.56 -3.73,1.373 -2.492,0.898 -1.249,0.442 0,0"
       style="fill:#231f20;fill-opacity:1;fill-rule:nonzero;stroke:none"
       transform="matrix(1.3333333,0,0,-1.3333333,134.60867,884.9796)"
       clip-path="url(#clipPath150)" />
    <path
       id="path151"
       d="M 0,0 C 1.138,3.639 2.266,7.276 3.381,10.918 2.267,11.248 1.156,11.593 0.049,11.951 -1.148,8.337 -2.357,4.723 -3.579,1.112 -2.39,0.729 -1.196,0.358 0,0"
       style="fill:#231f20;fill-opacity:1;fill-rule:nonzero;stroke:none"
       transform="matrix(1.3333333,0,0,-1.3333333,145.4844,888.53427)"
       clip-path="url(#clipPath152)" />
    <path
       id="path153"
       d="M 0,0 C 0.958,-0.275 1.919,-0.542 2.881,-0.799 1.972,-4.1 1.054,-7.402 0.127,-10.7 c 1.28,-0.343 2.563,-0.669 3.852,-0.981 0.845,3.319 1.683,6.64 2.514,9.965 0.963,-0.234 1.928,-0.458 2.895,-0.673 0.086,0.373 0.171,0.744 0.256,1.117 C 6.516,-0.575 3.408,0.215 0.325,1.1 0.217,0.733 0.108,0.366 0,0"
       style="fill:#231f20;fill-opacity:1;fill-rule:nonzero;stroke:none"
       transform="matrix(1.3333333,0,0,-1.3333333,151.53707,876.02267)"
       clip-path="url(#clipPath154)" />
    <path
       id="path155"
       d="m 0,0 c -1.142,0.217 -2.281,0.445 -3.418,0.686 -0.547,-2.496 -1.097,-4.989 -1.652,-7.482 -0.578,-2.558 0.733,-4.204 3.966,-4.799 3.247,-0.587 5.087,0.488 5.491,3.077 0.403,2.521 0.805,5.042 1.202,7.565 C 5.204,-0.895 4.818,-0.834 4.432,-0.771 4.015,-3.292 3.596,-5.81 3.173,-8.33 c -0.296,-1.78 -1.279,-2.545 -2.944,-2.254 -0.858,0.151 -1.411,0.44 -1.656,0.86 -0.245,0.42 -0.268,1.123 -0.073,2.107 0.503,2.539 1.004,5.079 1.5,7.617"
       style="fill:#231f20;fill-opacity:1;fill-rule:nonzero;stroke:none"
       transform="matrix(1.3333333,0,0,-1.3333333,170.89773,879.0552)"
       clip-path="url(#clipPath156)" />
    <path
       id="path157"
       d="M 0,0 C 0.032,0.38 0.064,0.761 0.097,1.141 -3.097,1.402 -6.283,1.758 -9.455,2.212 -9.511,1.834 -9.567,1.456 -9.623,1.078 -8.637,0.937 -7.649,0.805 -6.66,0.685 -7.097,-2.711 -7.538,-6.107 -7.982,-9.5 c 1.315,-0.162 2.631,-0.31 3.949,-0.441 0.362,3.403 0.72,6.806 1.074,10.21 C -1.973,0.17 -0.987,0.081 0,0"
       style="fill:#231f20;fill-opacity:1;fill-rule:nonzero;stroke:none"
       transform="matrix(1.3333333,0,0,-1.3333333,192.8724,883.55773)"
       clip-path="url(#clipPath158)" />
    <path
       id="path159"
       d="M 0,0 C -0.209,0.7 -0.255,2.023 -0.145,3.972 -0.033,5.919 0.159,7.229 0.43,7.905 0.702,8.58 1.165,8.899 1.824,8.872 2.483,8.844 2.916,8.482 3.125,7.784 3.333,7.084 3.408,5.765 3.341,3.819 3.274,1.869 3.106,0.555 2.834,-0.125 2.562,-0.805 2.072,-1.13 1.369,-1.101 0.667,-1.068 0.208,-0.7 0,0 M 7.139,3.739 C 7.165,7.679 5.437,9.637 1.961,9.779 -1.643,9.939 -3.599,8.191 -3.924,4.352 -4.265,0.351 -2.52,-1.833 1.327,-2.01 5.175,-2.171 7.114,-0.19 7.139,3.739"
       style="fill:#231f20;fill-opacity:1;fill-rule:nonzero;stroke:none"
       transform="matrix(1.3333333,0,0,-1.3333333,198.55853,895.31427)"
       clip-path="url(#clipPath160)" />
    <path
       id="path161"
       d="m 0,0 c -0.233,3.415 -0.465,6.83 -0.695,10.241 -1.16,-0.073 -2.32,-0.136 -3.481,-0.184 0.169,-3.802 0.339,-7.601 0.511,-11.401 3.018,0.13 6.031,0.338 9.035,0.626 C 5.332,-0.337 5.292,0.042 5.255,0.422 3.506,0.253 1.753,0.113 0,0"
       style="fill:#231f20;fill-opacity:1;fill-rule:nonzero;stroke:none"
       transform="matrix(1.3333333,0,0,-1.3333333,224.9056,895.95227)"
       clip-path="url(#clipPath162)" />
    <path
       id="path163"
       d="m 0,0 c -1.154,-0.147 -2.306,-0.28 -3.462,-0.404 0.412,-3.782 0.83,-7.564 1.251,-11.345 1.242,0.132 2.484,0.275 3.724,0.434 C 1.002,-7.545 0.498,-3.771 0,0"
       style="fill:#231f20;fill-opacity:1;fill-rule:nonzero;stroke:none"
       transform="matrix(1.3333333,0,0,-1.3333333,237.1016,881.03307)"
       clip-path="url(#clipPath164)" />
    <path
       id="path165"
       d="m 0,0 c -1.138,-0.236 -2.278,-0.46 -3.42,-0.673 0.716,-3.736 1.441,-7.473 2.172,-11.21 1.227,0.229 2.454,0.47 3.678,0.725 -0.408,1.848 -0.812,3.698 -1.214,5.55 0.961,0.202 1.923,0.412 2.882,0.629 0.437,-1.843 0.875,-3.686 1.316,-5.529 1.219,0.278 2.434,0.569 3.645,0.872 C 8.086,-5.953 7.124,-2.269 6.171,1.416 5.042,1.135 3.912,0.863 2.779,0.606 3.129,-0.886 3.48,-2.374 3.834,-3.863 2.88,-4.08 1.926,-4.289 0.971,-4.487 0.646,-2.991 0.323,-1.496 0,0"
       style="fill:#231f20;fill-opacity:1;fill-rule:nonzero;stroke:none"
       transform="matrix(1.3333333,0,0,-1.3333333,253.418,878.29867)"
       clip-path="url(#clipPath166)" />
    <path
       id="path167"
       d="M 0,0 C -0.673,-0.203 -1.231,-0.007 -1.67,0.581 -2.109,1.172 -2.61,2.4 -3.175,4.273 -3.738,6.143 -4.003,7.439 -3.976,8.166 -3.951,8.894 -3.623,9.347 -2.991,9.537 -2.359,9.729 -1.827,9.53 -1.392,8.942 -0.956,8.354 -0.437,7.133 0.166,5.281 0.771,3.424 1.069,2.131 1.045,1.402 1.023,0.675 0.674,0.203 0,0 M -3.169,10.437 C -6.625,9.398 -7.881,7.106 -6.871,3.385 c 1.055,-3.879 3.46,-5.36 7.147,-4.256 3.683,1.124 4.826,3.628 3.502,7.334 -1.325,3.718 -3.617,4.988 -6.947,3.974"
       style="fill:#231f20;fill-opacity:1;fill-rule:nonzero;stroke:none"
       transform="matrix(1.3333333,0,0,-1.3333333,275.4928,887.38853)"
       clip-path="url(#clipPath168)" />
    <path
       id="path169"
       d="m 0,0 c 2.463,-1.669 4.996,-3.285 7.595,-4.844 0.887,0.355 1.771,0.72 2.653,1.089 C 8.718,-0.26 7.202,3.235 5.7,6.734 5.339,6.583 4.979,6.436 4.617,6.285 5.625,3.883 6.641,1.486 7.664,-0.911 4.866,0.755 2.146,2.49 -0.491,4.289 -1.183,4.031 -1.876,3.78 -2.571,3.532 -1.27,-0.046 0.045,-3.622 1.371,-7.197 1.766,-7.056 2.162,-6.913 2.556,-6.77 1.699,-4.513 0.847,-2.257 0,0"
       style="fill:#231f20;fill-opacity:1;fill-rule:nonzero;stroke:none"
       transform="matrix(1.3333333,0,0,-1.3333333,284.0632,875.38973)"
       clip-path="url(#clipPath170)" />
    <path
       id="path171"
       d="m 0,0 c -0.386,-2.15 -0.814,-4.307 -1.286,-6.465 -0.797,1.5 -1.589,3.001 -2.378,4.504 -1.035,-0.539 -2.076,-1.064 -3.124,-1.577 1.697,-3.409 3.409,-6.816 5.138,-10.217 1.122,0.553 2.239,1.116 3.351,1.692 -0.707,1.316 -1.411,2.633 -2.112,3.95 0.072,0.237 0.143,0.476 0.213,0.716 1.658,-1.02 3.342,-2.012 5.05,-2.981 1.225,0.671 2.439,1.355 3.646,2.057 -2.716,1.44 -5.371,2.943 -7.964,4.502 0.323,1.543 0.624,3.086 0.901,4.624 C 0.959,0.534 0.479,0.266 0,0"
       style="fill:#231f20;fill-opacity:1;fill-rule:nonzero;stroke:none"
       transform="matrix(1.3333333,0,0,-1.3333333,311.4752,856.79733)"
       clip-path="url(#clipPath172)" />
    <path
       id="path173"
       d="m 0,0 c 1.954,-3.268 3.924,-6.527 5.915,-9.782 1.076,0.639 2.147,1.296 3.21,1.962 C 7.063,-4.611 5.021,-1.396 2.996,1.827 2.004,1.205 1.007,0.597 0,0"
       style="fill:#231f20;fill-opacity:1;fill-rule:nonzero;stroke:none"
       transform="matrix(1.3333333,0,0,-1.3333333,316.8268,853.72573)"
       clip-path="url(#clipPath174)" />
    <path
       id="path175"
       d="M 0,0 C -3.648,2.69 -5.051,4.998 -4.381,6.773 -3.479,9.152 -1.303,9.666 2.184,8.46 6.603,6.95 8.312,4.549 7.251,1.009 7.085,0.461 6.782,-0.192 6.341,-0.948 7.896,-1.149 9.449,-1.33 11,-1.491 c 1.664,6.068 -0.962,9.96 -7.745,12.259 -3.312,1.136 -6.256,1.319 -8.933,0.497 -2.673,-0.822 -4.586,-2.505 -5.674,-5.142 -1.925,-4.625 -0.134,-9.423 5.841,-13.994 4.128,-3.145 5.986,-5.624 5.351,-7.644 -0.841,-2.697 -3.329,-3.43 -7.416,-2.019 -5.103,1.787 -6.898,4.649 -5.461,8.296 0.359,0.925 0.969,1.941 1.819,3.057 -1.702,0.309 -3.407,0.64 -5.113,0.994 -0.36,-0.64 -0.636,-1.186 -0.826,-1.644 -2.36,-5.571 0.849,-10.356 9.865,-13.479 4.06,-1.386 7.625,-1.52 10.573,-0.485 2.954,1.038 4.787,3.046 5.577,5.944 C 10.198,-9.877 7.036,-5.128 0,0"
       style="fill:#231f20;fill-opacity:1;fill-rule:nonzero;stroke:none"
       transform="matrix(1.3333333,0,0,-1.3333333,124.91347,905.52653)"
       clip-path="url(#clipPath176)" />
    <path
       id="path177"
       d="M 0,0 C 2.489,4.255 4.883,8.552 7.18,12.876 7.602,8.025 8.116,3.173 8.724,-1.687 5.807,-1.184 2.899,-0.622 0,0 M 7.42,20.569 C 2.208,10.832 -3.511,1.276 -9.725,-8.058 c 1.396,-0.35 2.794,-0.688 4.194,-1.012 1.302,2.05 2.58,4.112 3.836,6.182 3.607,-0.794 7.227,-1.493 10.861,-2.099 0.337,-2.382 0.699,-4.761 1.083,-7.141 3.633,-0.569 7.278,-1.051 10.929,-1.441 -2.361,10.881 -4.223,21.79 -5.589,32.695 -2.731,0.421 -5.454,0.903 -8.169,1.443"
       style="fill:#231f20;fill-opacity:1;fill-rule:nonzero;stroke:none"
       transform="matrix(1.3333333,0,0,-1.3333333,152.31707,928.20747)"
       clip-path="url(#clipPath178)" />
    <path
       id="path179"
       d="m 0,0 c 0.201,-7.221 0.401,-14.441 0.603,-21.66 -5.676,7.066 -10.804,14.358 -15.373,21.812 -1.985,0.099 -3.969,0.226 -5.952,0.383 -0.839,-10.535 -1.677,-21.068 -2.515,-31.602 1.222,-0.097 2.446,-0.184 3.669,-0.263 0.422,6.676 0.844,13.353 1.266,20.026 4.354,-6.977 9.185,-13.815 14.485,-20.468 2.792,0.02 5.583,0.091 8.373,0.214 C 4.09,-21 3.624,-10.442 3.158,0.114 2.105,0.067 1.053,0.029 0,0"
       style="fill:#231f20;fill-opacity:1;fill-rule:nonzero;stroke:none"
       transform="matrix(1.3333333,0,0,-1.3333333,219.68947,905.6372)"
       clip-path="url(#clipPath180)" />
    <path
       id="path181"
       d="m 0,0 c -0.645,-2.056 -2.276,-3.308 -4.862,-3.697 -0.938,-0.139 -1.879,-0.276 -2.82,-0.405 -1.194,8.737 -2.39,17.475 -3.586,26.211 0.83,0.115 1.658,0.231 2.484,0.356 2.29,0.344 4.016,-0.322 5.223,-2.046 1.204,-1.723 2.273,-5.036 3.17,-9.956 C 0.507,5.543 0.65,2.055 0,0 m -7.62,25.3 c -4.438,-0.702 -8.895,-1.249 -13.364,-1.639 0.922,-10.528 1.843,-21.055 2.763,-31.582 4.999,0.436 9.988,1.042 14.954,1.814 11.5,1.842 15.906,8.526 13.404,18.719 C 7.617,22.939 1.749,26.818 -7.62,25.3"
       style="fill:#231f20;fill-opacity:1;fill-rule:nonzero;stroke:none"
       transform="matrix(1.3333333,0,0,-1.3333333,262.96947,936.30253)"
       clip-path="url(#clipPath182)" />
    <path
       id="path183"
       d="M 0,0 C 0.159,4.931 0.218,9.849 0.177,14.75 2.875,10.695 5.66,6.68 8.528,2.71 5.701,1.744 2.856,0.843 0,0 m -3.295,21.62 c 0.054,-11.052 -0.415,-22.182 -1.416,-33.351 1.394,0.36 2.786,0.731 4.174,1.118 0.166,2.424 0.307,4.845 0.423,7.265 3.562,1.032 7.102,2.156 10.618,3.372 1.444,-1.927 2.907,-3.841 4.39,-5.744 3.505,1.251 6.985,2.591 10.44,4.022 C 17.993,6.699 11.09,15.369 4.64,24.283 2.01,23.335 -0.635,22.447 -3.295,21.62"
       style="fill:#231f20;fill-opacity:1;fill-rule:nonzero;stroke:none"
       transform="matrix(1.3333333,0,0,-1.3333333,293.57947,922.90027)"
       clip-path="url(#clipPath184)" />
    <path
       id="path185"
       d="M 0,0 C 2.54,1.626 4.67,0.988 6.344,-1.799 7.808,-4.235 7.361,-6.145 5.044,-7.625 4.453,-8.004 3.864,-8.386 3.277,-8.772 1.601,-6.229 -0.075,-3.683 -1.751,-1.139 -1.168,-0.756 -0.585,-0.375 0,0 m -7.231,7.183 c 0.65,0.429 1.303,0.854 1.958,1.274 2.1,1.341 3.836,0.875 5.178,-1.33 C 1.359,4.736 1.13,2.97 -0.754,1.767 -1.437,1.332 -2.116,0.892 -2.793,0.445 -4.272,2.69 -5.752,4.937 -7.231,7.183 M 8.651,-7.601 c 4.774,2.912 6.284,5.959 4.361,9.553 -1.555,2.887 -4.471,3.654 -8.726,2.02 2.81,2.538 3.64,4.911 2.358,7.252 -1.783,3.271 -5.578,3.417 -11.178,-0.058 -3.608,-2.252 -7.154,-4.643 -10.633,-7.173 4.485,-6.174 8.972,-12.348 13.458,-18.524 3.384,2.46 6.84,4.77 10.36,6.93"
       style="fill:#231f20;fill-opacity:1;fill-rule:nonzero;stroke:none"
       transform="matrix(1.3333333,0,0,-1.3333333,89.227867,687.61507)"
       clip-path="url(#clipPath186)" />
    <path
       id="path187"
       d="m 0,0 c 1.476,0.676 3.21,-1.248 5.19,-5.738 1.98,-4.494 2.296,-7.033 0.957,-7.648 C 4.82,-13.996 3.102,-12.103 0.985,-7.67 -1.132,-3.242 -1.464,-0.676 0,0 m 6.787,-14.734 c 5.437,2.477 7.168,6.236 5.039,11.767 C 9.711,2.522 5.509,4.148 -0.605,1.364 -6.718,-1.47 -8.28,-5.749 -5.489,-10.929 c 2.806,-5.217 6.84,-6.323 12.276,-3.805"
       style="fill:#231f20;fill-opacity:1;fill-rule:nonzero;stroke:none"
       transform="matrix(1.3333333,0,0,-1.3333333,114.37373,666.55253)"
       clip-path="url(#clipPath188)" />
    <path
       id="path189"
       d="M 0,0 C 0.782,0.305 1.565,0.603 2.352,0.891 3.077,3.124 3.854,5.358 4.685,7.588 6.382,6.215 8.047,4.815 9.676,3.393 c 2.376,0.749 4.767,1.44 7.17,2.075 -2.825,2.753 -5.766,5.436 -8.822,8.04 1.142,2.706 2.362,5.4 3.661,8.083 C 10.796,21.353 9.909,21.106 9.023,20.854 8.094,18.883 7.208,16.907 6.365,14.925 4.867,16.176 3.341,17.403 1.789,18.613 -0.842,17.736 -3.455,16.795 -6.051,15.791 -2.923,13.583 0.108,11.298 3.04,8.941 1.934,5.965 0.92,2.983 0,0"
       style="fill:#231f20;fill-opacity:1;fill-rule:nonzero;stroke:none"
       transform="matrix(1.3333333,0,0,-1.3333333,135.17053,680.6984)"
       clip-path="url(#clipPath190)" />
    <path
       id="path191"
       d="M 0,0 C 1.358,0.272 2.403,-1.536 3.128,-5.405 1.782,-5.659 0.438,-5.931 -0.904,-6.219 -0.986,-5.715 -1.068,-5.212 -1.15,-4.709 -1.614,-1.822 -1.229,-0.247 0,0 m 3.371,-15.747 c 4.493,0.888 6.599,3.14 6.304,7.053 -0.925,0.102 -1.854,0.194 -2.785,0.282 0.097,-0.427 0.174,-0.803 0.229,-1.136 0.413,-2.473 -0.485,-3.882 -2.685,-4.299 -2.346,-0.451 -3.983,1.45 -4.922,5.78 3.238,0.692 6.491,1.29 9.756,1.789 -0.918,6.222 -4.239,8.978 -9.905,7.843 -2.694,-0.544 -4.712,-1.91 -5.987,-4.013 -1.278,-2.109 -1.532,-4.49 -0.845,-7.132 1.449,-5.454 5.033,-7.346 10.84,-6.167"
       style="fill:#231f20;fill-opacity:1;fill-rule:nonzero;stroke:none"
       transform="matrix(1.3333333,0,0,-1.3333333,165.86133,649.99)"
       clip-path="url(#clipPath192)" />
    <path
       id="path193"
       d="m 0,0 c 1.586,0.132 2.55,-2.266 2.889,-7.163 0.339,-4.9 -0.212,-7.393 -1.651,-7.513 -1.425,-0.121 -2.38,2.246 -2.867,7.133 C -2.114,-2.658 -1.573,-0.134 0,0 m 1.383,-16.161 c 5.835,0.472 8.698,3.426 8.565,9.349 -0.131,5.881 -3.491,8.832 -10.054,8.301 -6.574,-0.574 -9.408,-4.048 -8.55,-9.868 0.861,-5.861 4.193,-8.292 10.039,-7.782"
       style="fill:#231f20;fill-opacity:1;fill-rule:nonzero;stroke:none"
       transform="matrix(1.3333333,0,0,-1.3333333,192.33133,646.0448)"
       clip-path="url(#clipPath194)" />
    <path
       id="path195"
       d="m 0,0 c 2.831,-0.34 5.169,-0.022 7.086,1.016 1.912,1.032 3.095,2.62 3.49,4.812 0.075,0.418 0.139,0.916 0.194,1.5 C 9.777,7.755 8.777,8.174 7.771,8.585 7.777,7.587 7.736,6.841 7.656,6.345 7.404,4.788 6.719,3.566 5.624,2.67 4.529,1.775 3.298,1.423 1.902,1.606 -1.458,2.037 -2.855,5.244 -2.274,11.383 -1.597,18.514 0.464,21.94 3.892,21.511 7.121,21.095 8.468,19.155 7.94,15.826 7.884,15.462 7.785,14.95 7.646,14.292 c 1.151,0.264 2.312,0.517 3.479,0.758 0.838,4.672 -1.706,7.605 -7.687,8.359 -3.822,0.47 -7.056,-0.387 -9.556,-2.467 -2.51,-2.084 -3.791,-4.97 -3.977,-8.587 C -10.435,4.698 -7.052,0.819 0,0"
       style="fill:#231f20;fill-opacity:1;fill-rule:nonzero;stroke:none"
       transform="matrix(1.3333333,0,0,-1.3333333,237.25133,668.3716)"
       clip-path="url(#clipPath196)" />
    <path
       id="path197"
       d="M 0,0 C 0.331,1.394 0.957,2.621 1.9,3.676 2.84,4.728 3.7,5.157 4.454,4.965 5.179,4.777 5.42,4.209 5.171,3.27 4.077,-0.872 2.983,-5.014 1.89,-9.155 3.989,-9.71 6.076,-10.305 8.155,-10.946 9.482,-6.637 10.81,-2.33 12.137,1.978 12.894,4.406 11.672,6.141 8.438,7.045 5.701,7.8 3.286,7.248 1.291,5.434 2.002,8.431 2.716,11.43 3.429,14.426 0.688,14.836 -1.757,15.23 -3.91,15.652 -5.37,8.16 -6.833,0.669 -8.293,-6.823 -6.171,-7.236 -4.056,-7.695 -1.947,-8.194 -1.297,-5.463 -0.65,-2.732 0,0"
       style="fill:#231f20;fill-opacity:1;fill-rule:nonzero;stroke:none"
       transform="matrix(1.3333333,0,0,-1.3333333,263.79693,661.1828)"
       clip-path="url(#clipPath198)" />
    <path
       id="path199"
       d="M 0,0 C 2.057,5.405 4.11,10.808 6.167,16.213 3.649,16.846 1.33,17.507 -0.813,18.223 -2.596,12.881 -4.381,7.54 -6.165,2.2 -4.099,1.509 -2.043,0.776 0,0"
       style="fill:#231f20;fill-opacity:1;fill-rule:nonzero;stroke:none"
       transform="matrix(1.3333333,0,0,-1.3333333,287.638,680.23227)"
       clip-path="url(#clipPath200)" />
    <path
       id="path201"
       d="M 0,0 C 2.139,-0.767 3.463,-0.491 3.989,0.891 4.516,2.268 3.687,3.381 1.49,4.171 -0.709,4.953 -2.051,4.614 -2.517,3.214 -2.985,1.812 -2.141,0.763 0,0"
       style="fill:#231f20;fill-opacity:1;fill-rule:nonzero;stroke:none"
       transform="matrix(1.3333333,0,0,-1.3333333,292.138,654.83507)"
       clip-path="url(#clipPath202)" />
    <path
       id="path203"
       d="m 0,0 c 1.281,2.809 2.562,5.617 3.844,8.426 0.566,1.241 1.33,2.191 2.306,2.844 0.977,0.651 1.852,0.793 2.611,0.429 C 9.51,11.342 9.606,10.59 9.054,9.454 7.241,5.733 5.429,2.015 3.618,-1.707 c 1.983,-0.965 3.95,-1.977 5.9,-3.029 2.061,3.818 4.121,7.637 6.181,11.458 1.376,2.529 0.565,4.635 -2.488,6.174 -2.349,1.185 -4.826,1.188 -7.321,0.015 0.44,0.962 0.879,1.924 1.318,2.886 -2.27,0.728 -4.55,1.564 -6.86,2.506 C -1.783,13.072 -3.915,7.843 -6.046,2.611 -4.018,1.786 -2.001,0.914 0,0"
       style="fill:#231f20;fill-opacity:1;fill-rule:nonzero;stroke:none"
       transform="matrix(1.3333333,0,0,-1.3333333,300.33987,685.54213)"
       clip-path="url(#clipPath204)" />
    <path
       id="path205"
       d="M 0,0 C 2.586,4.171 4.577,5.832 5.958,4.946 7.349,4.052 6.68,1.543 3.967,-2.545 1.251,-6.638 -0.732,-8.263 -1.993,-7.452 -3.246,-6.648 -2.587,-4.175 0,0 m -2.784,-8.72 c 5.115,-3.301 9.313,-2.81 12.823,1.959 C 13.533,-2.025 12.531,2.474 6.78,6.192 0.999,9.875 -3.434,8.869 -6.289,3.726 -9.162,-1.456 -7.922,-5.44 -2.784,-8.72"
       style="fill:#231f20;fill-opacity:1;fill-rule:nonzero;stroke:none"
       transform="matrix(1.3333333,0,0,-1.3333333,330.33333,688.81947)"
       clip-path="url(#clipPath206)" />
    <path
       id="path207"
       d="m 0,0 c -0.337,-0.264 -0.919,-0.281 -1.123,-0.675 -0.579,0.351 -0.441,1.587 0,2.245 0.686,-0.164 0.819,0.228 1.348,0.224 C 0.273,1.071 -0.173,0.846 0,0 m 0.673,-7.635 c 0.133,-0.545 0.167,-0.959 0.224,-2.021 -0.882,0.092 -0.958,0.988 -1.794,1.123 -0.923,0.024 -0.9,-0.895 -2.022,-0.673 -0.146,1.869 2.356,1.086 3.592,1.571 M 0.449,-4.49 c 0.698,-0.052 0.379,-1.118 0.448,-1.798 -0.896,0.284 -1.925,0.931 -3.367,0 0.15,1.423 2.15,0.993 2.919,1.798 m 13.919,1.345 c -0.446,1.125 -2.028,1.115 -2.47,2.244 2.321,0.302 4.998,0.241 6.285,1.572 -1.49,3.397 -5.823,-0.288 -8.08,0 0.989,1.78 1.644,3.893 1.795,6.512 C 11.11,8.091 10.255,9.443 8.755,8.979 8.191,5.875 8.319,2.082 6.734,0 6.263,1.224 3.909,1.075 2.917,1.121 3.069,2.99 5.659,2.424 6.734,3.365 6.611,4.889 4.805,4.73 4.041,5.61 4.312,6.387 4.648,7.098 4.489,8.306 3.315,8.977 1.682,10.115 0.225,9.203 1.047,7.363 1.142,3.091 -1.572,3.365 -1.374,4.708 -1.406,5.258 -1.796,6.51 -3.114,6.591 -4.112,8.015 -5.388,7.406 -5.546,6.283 -3.907,4.019 -4.49,2.467 -5.624,2.328 -6.759,2.191 -7.633,1.794 c 0.808,-0.827 1.963,-1.77 3.591,-1.123 -0.12,-0.868 0.4,-1.093 0.225,-2.019 -2.369,-0.251 -4.136,-1.105 -6.735,-1.123 0.393,-2.106 2.68,-1.72 4.714,-1.348 2.515,-3.393 -3.718,-10.359 1.572,-11.224 1.12,0.675 0.676,2.916 1.347,4.041 1.006,0.322 3.023,0.64 3.816,0.449 -0.188,-0.559 -0.293,-1.203 -0.224,-2.021 -0.703,-0.045 -1.648,0.152 -2.021,-0.224 0.914,-1.48 1.897,-2.891 4.265,-2.919 1.927,2.581 -0.449,8.342 1.349,12.123 -2.479,2.861 -6.497,-1.616 -8.982,0.226 3.555,0.559 7.63,1.799 10.778,2.02 -0.287,-0.913 -1.318,-1.081 -1.347,-2.246 2.629,-0.74 3.916,2.952 6.511,2.246 -0.426,-1.298 -0.376,-3.068 -0.9,-4.265 -0.947,0.965 -5.077,2.657 -5.162,0.447 1.469,-0.926 3.951,-0.838 4.489,-2.694 -1.156,-2.509 -3.835,-3.498 -5.612,-5.387 3.086,-0.843 6.321,1.858 7.857,4.041 1.981,-0.663 3.009,-4.607 5.389,-5.162 1.927,-0.451 4.832,0.41 6.286,1.57 -3.888,1.425 -7.944,2.683 -10.552,5.387 0.537,1.335 1.487,2.255 1.347,4.266"
       style="fill:#231f20;fill-opacity:1;fill-rule:nonzero;stroke:none"
       transform="matrix(1.3333333,0,0,-1.3333333,201.72987,802.20613)"
       clip-path="url(#clipPath208)" />
    <path
       id="path209"
       d="M 0,0 C 0.075,0.896 -0.4,1.245 -0.225,2.243 0.693,3.122 3.604,2.006 3.816,3.592 3.113,5.027 0.573,5.569 -1.123,4.714 -1.35,5.982 -2.778,6.052 -3.367,6.96 c 2.049,0.568 4.012,1.226 5.612,2.245 -0.711,1.482 -3.311,2.191 -5.163,1.793 -0.66,-0.19 0.291,-0.563 0,-1.12 -1.964,-1.93 -5.641,-2.143 -7.41,-4.267 1.34,-0.955 3.105,0.521 4.715,0.675 C -4.987,5.563 -4.028,5.177 -3.816,4.041 -5.45,3.726 -6.939,3.272 -8.98,3.366 c 0.111,-2.614 3.317,-2.042 5.388,-1.57 -0.143,-0.758 0.289,-2.087 -0.224,-2.471 -4.519,-0.345 -8.409,-1.319 -13.022,-1.572 -0.108,-1.604 1.152,-1.841 2.021,-2.469 3.244,1.031 7.994,1.722 11.45,1.796 -0.533,-2.236 -0.25,-5.289 -1.798,-6.51 -1.141,-0.02 -1.774,0.469 -2.917,0.45 0.296,-1.897 2.083,-4.189 4.49,-4.714 3.238,1.648 3.615,7.963 3.816,11.223 3.564,1.34 9.267,-0.574 11.675,0.45 C 10.879,2.741 4.361,-0.02 0,0"
       style="fill:#231f20;fill-opacity:1;fill-rule:nonzero;stroke:none"
       transform="matrix(1.3333333,0,0,-1.3333333,211.90693,844.11373)"
       clip-path="url(#clipPath210)" />
    <path
       id="path211"
       d="m 0,0 c -0.067,-0.006 -0.134,-0.012 -0.214,-0.018 0,0 0.08,0.006 0.214,0.018"
       style="fill:#231f20;fill-opacity:1;fill-rule:nonzero;stroke:none"
       transform="matrix(1.3333333,0,0,-1.3333333,237.09173,865.7336)"
       clip-path="url(#clipPath212)" />
    <path
       id="path213"
       d="m 0,0 c -1.337,-0.472 -2.591,-0.973 -2.599,-2.332 -0.005,-1.275 1.171,-1.279 1.501,-2.46 -0.258,-1.23 -1.012,-2.158 -0.892,-3.19 0.146,-1.241 1.903,-1.605 1.636,-3.112 -0.784,-0.659 -1.718,-0.069 -2.846,-0.23 -2.487,-0.363 -4.865,-2.306 -6.722,-3.169 -1.123,-0.522 -2.411,-0.489 -3.503,-1.015 -0.7,-0.338 -1.224,-1.004 -1.937,-1.389 -2.352,-1.271 -5.107,-1.713 -7.029,-2.836 -1.57,-0.913 -2.693,-2.867 -4.532,-3.718 -0.647,-0.3 -1.441,-0.286 -2.068,-0.577 -2.775,-1.284 -4.905,-3.254 -6.786,-5.097 -2.789,1.096 -5.549,1.773 -8.268,2.835 -0.914,0.36 -2.098,0.504 -2.811,0.895 -0.719,0.397 -1.116,1.306 -1.834,1.83 -1.331,0.97 -2.543,1.504 -4.045,1.737 -4.791,8.301 -18.45,8.104 -25.247,14.482 1.347,2.613 -0.651,4.459 -2.164,6.347 -1.031,1.286 -2.185,3.003 -3.192,3.801 -1.691,1.345 -4.225,2.819 -7.028,2.156 -1.112,-0.262 -4.149,-2.165 -4.823,-2.905 -1.307,-1.436 -1.056,-3.786 -1.764,-5.9 -0.55,-1.64 -2.436,-4.007 -3.787,-5.031 -1.333,-1.011 -3.076,-1.713 -5.422,-1.921 -2.704,-0.961 -3.819,-2.815 -5.521,-4.975 -1.5,-1.906 -2.433,-3.411 -2.083,-6.052 0.521,-3.92 1.519,-6.949 1.396,-10.666 -0.106,-3.194 0.825,-6.524 1.118,-9.531 0.078,-0.824 -0.073,-1.665 0.082,-2.418 0.628,-3.106 3.054,-5.385 3.515,-8.484 0.364,-2.451 0.506,-4.589 1.37,-6.48 0.789,-1.723 2.493,-3.266 3.472,-4.939 0.323,-0.552 0.41,-1.303 0.731,-1.793 1.044,-1.601 3.728,-2.26 2.993,-5.086 1.528,-1.65 1.138,-3.311 1.875,-5.532 0.472,-1.422 1.377,-2.54 1.768,-3.92 0.542,-1.907 1.017,-4.033 0.752,-6.14 -0.36,-2.851 -2.676,-4.493 -3.685,-6.805 -1.202,-2.753 -0.304,-8.143 -0.997,-11.559 -0.353,-1.736 -2.94,-3.662 -2.853,-5.383 0.072,-1.377 2.44,-2.922 3.176,-4.285 0.053,-0.095 0.098,-0.197 0.142,-0.299 -1.896,0.717 -3.75,1.468 -5.539,2.255 0,0 -1.246,0.424 -2.491,0.844 -0.627,0.206 -1.251,0.423 -1.706,0.607 -0.461,0.176 -0.769,0.294 -0.769,0.294 -0.773,0.427 -1.52,0.838 -2.245,1.239 -0.71,0.419 -1.398,0.823 -2.068,1.217 -0.667,0.395 -1.325,0.762 -1.952,1.142 -0.622,0.39 -1.228,0.768 -1.821,1.139 -0.593,0.374 -1.188,0.716 -1.752,1.082 -0.563,0.371 -1.115,0.736 -1.663,1.098 -0.549,0.36 -1.094,0.713 -1.636,1.066 -0.527,0.374 -1.052,0.743 -1.577,1.116 -0.528,0.367 -1.057,0.738 -1.59,1.111 -0.514,0.394 -1.034,0.792 -1.559,1.195 -0.527,0.403 -1.061,0.81 -1.605,1.225 -0.519,0.443 -1.05,0.893 -1.592,1.351 -0.536,0.47 -1.111,0.922 -1.653,1.436 -0.542,0.514 -1.097,1.042 -1.669,1.587 -0.286,0.273 -0.576,0.553 -0.87,0.835 -0.278,0.299 -0.56,0.602 -0.847,0.908 -0.57,0.617 -1.172,1.246 -1.77,1.919 0,0 0.057,-0.045 0.142,-0.112 0.089,-0.062 0.208,-0.147 0.327,-0.233 0.238,-0.167 0.475,-0.338 0.475,-0.338 0,0 -0.09,0.086 -0.248,0.23 -0.154,0.153 -0.397,0.349 -0.645,0.622 -0.513,0.53 -1.197,1.239 -1.881,1.948 -0.172,0.179 -0.343,0.358 -0.512,0.532 -0.159,0.184 -0.313,0.364 -0.464,0.54 -0.302,0.349 -0.583,0.675 -0.824,0.954 -0.485,0.564 -0.808,0.937 -0.808,0.937 -0.192,0.28 -0.359,0.566 -0.52,0.85 -0.166,0.279 -0.329,0.555 -0.488,0.824 -0.326,0.536 -0.641,1.052 -0.946,1.553 -0.58,1.016 -1.095,1.979 -1.629,2.885 -0.973,1.853 -1.899,3.542 -2.663,5.36 -0.198,0.451 -0.411,0.901 -0.605,1.366 -0.17,0.475 -0.343,0.953 -0.518,1.443 -0.173,0.492 -0.35,0.992 -0.531,1.507 -0.171,0.519 -0.289,1.064 -0.439,1.622 -0.138,0.56 -0.281,1.137 -0.43,1.735 -0.127,0.601 -0.205,1.234 -0.31,1.885 -0.049,0.328 -0.097,0.662 -0.148,1 -0.046,0.339 -0.11,0.683 -0.119,1.041 -0.039,0.714 -0.08,1.454 -0.123,2.225 -0.095,0.829 -0.072,1.63 -0.092,2.405 -0.008,0.388 -0.017,0.768 -0.025,1.142 -0.006,0.373 -0.034,0.741 -0.005,1.1 0.025,0.721 0.05,1.416 0.074,2.087 0.008,0.335 0.016,0.664 0.024,0.988 0.029,0.322 0.058,0.638 0.086,0.95 0.127,1.24 0.145,2.405 0.323,3.469 0.065,0.537 0.126,1.054 0.186,1.552 0.026,0.251 0.052,0.496 0.077,0.736 0.024,0.241 0.076,0.474 0.111,0.704 0.152,0.921 0.274,1.783 0.372,2.592 0.122,0.806 0.275,1.543 0.373,2.252 0.176,1.422 0.417,2.639 0.572,3.785 0.124,0.404 0.256,0.808 0.394,1.22 0.17,0.397 0.342,0.801 0.515,1.209 0.182,0.405 0.365,0.814 0.55,1.226 0.192,0.41 0.366,0.832 0.602,1.228 0.447,0.803 0.91,1.609 1.38,2.412 0.223,0.41 0.503,0.787 0.762,1.177 0.265,0.385 0.529,0.769 0.793,1.153 0.266,0.383 0.53,0.761 0.794,1.142 0.286,0.361 0.573,0.721 0.855,1.082 0.575,0.709 1.106,1.431 1.684,2.091 1.173,1.31 2.229,2.591 3.291,3.678 0,0 -0.148,-0.199 -0.368,-0.499 -0.217,-0.301 -0.529,-0.687 -0.791,-1.107 -0.543,-0.827 -1.086,-1.65 -1.086,-1.65 0,0 0.874,0.897 1.747,1.796 0.92,0.85 1.839,1.702 1.839,1.702 0.689,0.829 1.363,1.503 1.969,2.118 0.607,0.61 1.143,1.166 1.664,1.663 1.072,0.96 1.98,1.78 2.965,2.637 2.043,1.636 4.232,3.609 8.876,6.924 0.813,0.54 1.618,0.965 2.337,1.404 0.726,0.428 1.391,0.834 2.005,1.212 1.261,0.706 2.308,1.326 3.192,1.882 1.786,1.078 2.949,1.848 3.829,2.565 0.889,0.698 1.538,1.262 2.315,1.901 0.78,0.631 1.698,1.323 3.216,2.098 0,0 0.91,0.297 2.272,0.742 1.369,0.425 3.214,0.929 5.044,1.449 1.859,0.443 3.697,0.926 5.094,1.216 1.398,0.286 2.33,0.477 2.33,0.477 l -0.385,0.139 c 2.07,0.939 3.554,1.451 4.896,1.894 0.674,0.214 1.31,0.42 1.988,0.579 0.678,0.156 1.388,0.304 2.194,0.463 0.809,0.149 1.708,0.34 2.78,0.505 1.072,0.159 2.307,0.341 3.771,0.554 0.73,0.122 1.526,0.198 2.385,0.301 0.858,0.1 1.782,0.21 2.782,0.325 0.997,0.131 2.078,0.191 3.236,0.305 1.161,0.094 2.401,0.237 3.74,0.29 l -1.025,0.66 c 1.822,-0.098 3.372,-0.092 4.825,-0.02 1.453,0.027 2.809,0.11 4.233,0.223 0.355,0.03 0.715,0.059 1.082,0.088 0.367,0.018 0.741,0.038 1.123,0.056 0.767,0.029 1.57,0.062 2.43,0.096 1.721,0.088 3.667,0.007 6.001,-0.122 0.284,-0.016 0.607,-0.039 0.962,-0.059 0.353,-0.04 0.74,-0.085 1.156,-0.135 0.83,-0.106 1.777,-0.232 2.81,-0.366 1.033,-0.123 2.146,-0.329 3.312,-0.53 0.584,-0.098 1.181,-0.2 1.791,-0.306 0.606,-0.1 1.226,-0.199 1.846,-0.334 4.994,-0.898 10.315,-2.184 14.317,-2.736 C -12.891,10.43 -9.49,9.392 -6.391,8.361 -5.615,8.113 -4.855,7.869 -4.111,7.63 -3.358,7.404 -2.644,7.124 -1.925,6.89 -0.492,6.398 0.915,5.958 2.268,5.432 3.628,4.922 4.998,4.466 6.323,3.885 6.547,3.79 6.777,3.697 7.001,3.6 4.111,2.891 1.459,1.522 0,0 m -12.811,-30.98 c -1.282,0.851 -2.237,-0.672 -3.498,-0.856 -0.617,-0.089 -1.54,0.338 -2.356,0.235 -0.822,-0.102 -2.47,-0.915 -3.964,-0.676 -1.141,0.178 -2.093,1.048 -3.111,1.383 -0.885,0.047 -2.388,-0.181 -3.098,0.177 0.519,1.946 1.669,3.03 3.669,2.864 0.71,-0.731 1.381,-2.888 2.789,-1.536 -0.008,1.188 -1.257,1.188 -1.184,2.452 1.941,0.459 3.506,0.377 5.402,1.276 1.501,0.714 2.249,1.671 3.668,1.333 0.62,-0.148 0.969,-1.011 1.54,-1.176 1.704,-0.492 2.576,0.677 4.128,0.836 0.773,-3.166 -2.86,-4.133 -3.985,-6.312 m -69.757,14.568 c 1.377,5.49 3.755,1.42 4.711,-0.762 -0.633,-0.371 -4.401,0.328 -4.711,0.762 m 4.483,-9.119 c -2.679,-2.523 -6.263,-4.685 -8.839,-8.209 -0.858,2.741 0.089,6.735 1.091,8.519 2.359,-0.227 5.833,-0.015 7.748,-0.31 m 52.153,-96.121 c -0.517,-0.112 -1.021,-0.221 -1.512,-0.326 -0.493,-0.089 -0.971,-0.172 -1.427,-0.252 -0.916,-0.158 -1.75,-0.293 -2.47,-0.394 -0.359,-0.052 -0.691,-0.095 -0.989,-0.125 -0.298,-0.022 -0.565,-0.032 -0.793,-0.034 0,0 0.316,0.083 0.788,0.203 0.469,0.137 1.093,0.323 1.719,0.506 1.246,0.366 2.491,0.733 2.491,0.733 0,0 -1.183,-0.143 -2.362,-0.284 -0.59,-0.071 -1.18,-0.143 -1.622,-0.196 -0.216,-0.03 -0.395,-0.048 -0.525,-0.059 1.307,0.094 0.374,-0.163 -1.074,-0.435 -1.521,-0.286 -3.59,-0.69 -4.166,-0.844 -5.336,-0.449 -7.236,-0.439 -8.63,-0.472 -0.697,-0.015 -1.271,0.019 -2.091,0.076 -0.817,0.056 -1.881,0.127 -3.558,0.24 -1.732,-0.099 -3.564,-0.079 -5.341,-0.051 -1.775,0.087 -3.494,0.217 -5.008,0.312 -3.022,0.302 -5.234,0.472 -5.475,0.089 -6.267,0.934 -12.666,2.217 -18.86,3.907 -0.807,0.22 -1.612,0.448 -2.412,0.68 0.234,0.09 0.459,0.188 0.661,0.302 -0.141,1.478 -1.709,1.586 -1.794,3.115 -2.394,1.559 -4.185,3.285 -4.701,5.943 -0.769,3.961 1.395,5.5 2.949,8.441 1.021,1.93 1.673,4.242 2.379,5.395 0.482,0.79 1.567,1.278 2.277,2.181 0.418,0.536 0.695,1.474 1.174,2.219 1.131,1.756 1.06,1.831 1.235,4.143 0.187,2.45 1.039,5.229 1.352,7.845 0.145,1.203 -0.168,2.476 -0.039,3.705 0.151,1.451 1.32,2.673 1.713,4.292 0.127,0.528 -0.061,1.145 0.055,1.769 0.262,1.385 1.147,2.632 1.064,3.67 -0.093,1.126 -1.119,2.044 -1.159,3.253 -0.073,2.218 0.875,4.248 0.209,6.594 1.47,0.896 3.342,1.354 4.651,2.429 -0.274,0.799 -0.883,1.409 -1.19,2.29 -0.295,0.851 -0.892,2.248 -0.848,3.086 0.072,1.342 1.481,3.276 2.043,4.764 0.655,1.733 1.12,3.967 2.658,4.259 0.78,-1.026 0.726,-2.385 1.469,-3.425 1.003,-1.402 3.264,-2.001 4.782,-3.371 0.75,-0.677 1.593,-1.87 2.434,-2.812 0.914,-1.029 2.061,-1.839 2.434,-2.814 0.691,-1.816 -0.153,-3.481 -0.357,-6.266 1.467,-1.814 3.983,-0.501 5.809,-0.83 0.653,-0.115 1.291,-0.742 1.86,-1.024 2.512,-1.244 5.409,-2.323 8.264,-2.999 0.476,0.694 -0.543,1.087 -0.411,1.945 -2.37,1.175 -3.61,3.364 -5.357,5.16 -4.608,3.789 -6.609,8.522 -10.656,17.317 -1.074,3.507 -2.95,5.406 -3.72,6.801 -0.811,1.474 -1.048,3.573 -2.057,4.734 -0.075,0.085 -2.307,1.169 -2.317,1.521 -0.015,0.507 2.405,1.222 3.064,2.155 0.478,0.678 0.292,1.295 0.844,1.745 1.206,-0.421 1.613,-1.499 2.613,-2.176 1.717,-1.165 3.939,-1.666 5.589,-2.75 0.913,-0.603 1.562,-1.915 2.435,-2.814 1.215,-1.259 2.992,-2.015 3.841,-3.18 0.606,-0.832 0.839,-2.279 1.306,-3.582 1.521,-4.262 3.67,-8.312 4.492,-12.537 1.863,-0.675 4.711,0.146 6.454,-0.366 1.176,-0.348 3.439,-2.554 4.472,-3.2 1.302,-0.815 4.19,-1.955 4.467,-3.362 0.327,-1.669 -0.621,-4.275 -0.52,-6.421 0.118,-2.47 0.64,-3.852 1.24,-5.674 0.147,-0.716 -0.351,-1.233 -0.052,-1.608 1.366,-2.071 2.932,-3.95 5.2,-5.155 0.496,-2.672 -0.313,-5.863 0.044,-8.533 0.095,-0.702 0.467,-1.317 0.413,-1.945 -0.053,-0.607 -0.522,-1.165 -0.688,-1.749 -0.553,-1.963 -1.364,-4.631 -1.169,-7.044 0.068,-0.836 0.586,-1.633 0.711,-2.438 0.296,-1.9 0.384,-3.722 0.468,-5.166 0.075,-1.292 0.086,-2.567 -0.117,-3.698 -0.356,-1.975 -2.535,-3.482 -2.521,-4.911 0.007,-0.957 1.464,-1.841 1.793,-3.116 0.795,-3.07 -0.589,-8.623 2.545,-9.257 0.021,-0.003 0.046,-0.003 0.066,-0.005 -0.179,-0.04 -0.362,-0.08 -0.539,-0.119 m 74.944,92.82 c -2.235,5.007 -4.968,8.997 -7.802,12.394 -0.359,0.419 -0.716,0.838 -1.068,1.253 -0.178,0.205 -0.351,0.414 -0.534,0.611 l -0.557,0.582 c -0.749,0.763 -1.486,1.513 -2.218,2.261 -0.754,0.715 -1.531,1.395 -2.292,2.082 -0.384,0.339 -0.761,0.684 -1.148,1.017 L 32.2,-7.675 c -3.14,2.604 -6.521,4.884 -10.203,7.286 -0.929,0.585 -1.877,1.185 -2.846,1.798 -0.985,0.585 -1.996,1.186 -3.032,1.8 C 15.095,3.852 14.002,4.428 12.897,5.061 12.342,5.378 11.781,5.698 11.211,6.024 10.63,6.336 10.044,6.648 9.446,6.969 8.909,7.236 8.375,7.502 7.845,7.77 7.317,8.032 6.793,8.296 6.26,8.527 5.2,8.998 4.154,9.464 3.128,9.923 2.102,10.383 1.06,10.759 0.049,11.17 c -1.02,0.397 -2.015,0.809 -3.028,1.145 -1.005,0.351 -2,0.698 -2.988,1.04 -0.982,0.348 -1.981,0.622 -2.96,0.93 -0.985,0.291 -1.953,0.622 -2.938,0.875 -0.979,0.263 -1.956,0.526 -2.933,0.787 -7.818,2.041 -15.671,3.44 -24.781,4.536 -1.542,-0.482 -4.515,-0.589 -8.328,-0.551 -0.954,-0.009 -1.96,-0.007 -3.01,0.006 -0.525,0.009 -1.061,0.018 -1.607,0.027 -0.545,-0.007 -1.101,-0.013 -1.664,-0.018 -1.129,-0.005 -2.292,-0.011 -3.479,-0.012 -1.187,-0.037 -2.398,-0.075 -3.625,-0.113 -9.813,-0.241 -20.599,-1.912 -26.945,-4.422 -1.09,-0.312 -2.102,-0.668 -3.04,-0.983 -0.935,-0.33 -1.799,-0.61 -2.55,-0.937 -1.507,-0.635 -2.641,-1.174 -3.297,-1.563 -1.311,-0.78 -0.713,-0.964 2.605,-0.126 -0.736,-0.236 -1.415,-0.455 -2.044,-0.659 -0.314,-0.099 -0.616,-0.193 -0.906,-0.283 -0.287,-0.099 -0.563,-0.194 -0.827,-0.286 -1.058,-0.361 -1.946,-0.647 -2.717,-0.882 -0.386,-0.115 -0.741,-0.22 -1.071,-0.318 -0.329,-0.105 -0.634,-0.201 -0.92,-0.293 -0.58,-0.174 -1.089,-0.324 -1.584,-0.472 -0.988,-0.295 -1.929,-0.547 -3.175,-1.088 -1.248,-0.537 -2.866,-1.221 -5.127,-2.523 0,0 0.689,0.59 1.378,1.181 0.344,0.299 0.698,0.581 0.965,0.789 0.268,0.212 0.446,0.351 0.446,0.351 -0.406,-0.152 -0.816,-0.309 -1.232,-0.465 -0.412,-0.17 -0.83,-0.342 -1.254,-0.517 -0.85,-0.348 -1.727,-0.711 -2.63,-1.099 -0.898,-0.399 -1.801,-0.867 -2.738,-1.356 -0.466,-0.246 -0.94,-0.504 -1.418,-0.771 -0.476,-0.273 -0.942,-0.584 -1.42,-0.895 0,0 -0.978,-0.859 -1.957,-1.718 -0.494,-0.418 -0.949,-0.891 -1.306,-1.222 -0.351,-0.336 -0.586,-0.562 -0.586,-0.562 -0.68,-0.385 -1.337,-0.767 -1.975,-1.147 -0.623,-0.403 -1.221,-0.814 -1.805,-1.214 -0.584,-0.405 -1.15,-0.806 -1.703,-1.206 -0.542,-0.411 -1.056,-0.843 -1.567,-1.261 -1.018,-0.841 -2.003,-1.664 -2.901,-2.563 -0.455,-0.443 -0.907,-0.883 -1.358,-1.322 l -0.671,-0.663 -0.64,-0.698 c -0.425,-0.465 -0.853,-0.931 -1.284,-1.402 -0.428,-0.472 -0.873,-0.933 -1.28,-1.443 -0.418,-0.499 -0.841,-1.005 -1.271,-1.516 -0.424,-0.516 -0.889,-1.011 -1.302,-1.57 -1.716,-2.174 -3.576,-4.512 -5.526,-7.31 0.665,0.892 1.13,1.503 1.483,1.86 0.339,0.37 0.513,0.522 0.565,0.518 0.108,-0.017 -0.298,-0.647 -0.795,-1.51 -0.478,-0.875 -1.084,-1.952 -1.498,-2.782 -0.216,-0.41 -0.343,-0.783 -0.405,-1.025 -0.059,-0.239 -0.038,-0.36 0.098,-0.298 -0.322,-0.401 -0.82,-1.139 -1.37,-1.985 -0.286,-0.416 -0.539,-0.883 -0.794,-1.346 -0.255,-0.463 -0.51,-0.922 -0.746,-1.346 -0.239,-0.423 -0.46,-0.817 -0.646,-1.148 -0.167,-0.338 -0.309,-0.611 -0.411,-0.787 -0.205,-0.352 -0.257,-0.316 -0.055,0.357 -1.167,-2.625 -2.08,-5.31 -2.659,-7.961 -0.143,-0.663 -0.284,-1.318 -0.424,-1.966 -0.077,-0.323 -0.122,-0.651 -0.165,-0.978 -0.045,-0.324 -0.089,-0.646 -0.133,-0.969 -0.087,-0.641 -0.173,-1.272 -0.258,-1.896 -0.087,-0.623 -0.095,-1.247 -0.148,-1.855 -0.081,-1.219 -0.194,-2.391 -0.178,-3.53 -0.013,-0.565 -0.025,-1.122 -0.038,-1.665 -0.011,-0.273 -0.02,-0.541 -0.03,-0.807 -0.004,-0.265 0.011,-0.528 0.011,-0.788 0.017,-1.038 0.007,-2.028 -0.039,-2.967 -0.002,-0.937 -0.008,-1.821 -0.083,-2.655 0,0 0.053,-0.258 0.132,-0.648 0.039,-0.192 0.087,-0.421 0.136,-0.662 0.065,-0.239 0.136,-0.496 0.207,-0.752 0.282,-1.015 0.565,-2.029 0.565,-2.029 0.198,-0.875 0.488,-1.703 0.723,-2.519 0.116,-0.411 0.232,-0.814 0.345,-1.216 0.113,-0.4 0.209,-0.804 0.349,-1.187 0.533,-1.548 0.918,-3.089 1.487,-4.549 0.26,-0.74 0.517,-1.477 0.774,-2.215 0.3,-0.719 0.6,-1.439 0.902,-2.164 0.565,-1.476 1.332,-2.871 2.08,-4.346 0,0 0.216,-0.135 0.432,-0.274 0.22,-0.132 0.45,-0.259 0.45,-0.259 0.647,-0.873 1.371,-1.959 2.18,-3.111 0.419,-0.568 0.853,-1.155 1.294,-1.748 0.438,-0.601 0.862,-1.222 1.34,-1.796 1.816,-2.375 3.696,-4.612 4.839,-6.128 3.868,-4.197 8.961,-8.192 14.462,-11.51 5.499,-3.339 11.389,-6.016 16.807,-8.097 1.277,-0.673 2.371,-1.123 3.28,-1.509 0.91,-0.381 1.649,-0.667 2.268,-0.882 1.259,-0.389 2.04,-0.523 2.794,-0.624 1.505,-0.198 2.906,-0.266 7.892,-1.578 1.556,-0.51 3.412,-1.074 5.416,-1.51 0.999,-0.226 2.02,-0.483 3.057,-0.683 1.038,-0.193 2.079,-0.39 3.102,-0.581 0.511,-0.094 1.015,-0.199 1.515,-0.281 0.501,-0.08 0.994,-0.159 1.476,-0.233 0.963,-0.156 1.882,-0.313 2.732,-0.47 1.705,-0.29 3.145,-0.531 4.116,-0.836 -1.133,0.134 -2.146,0.232 -3.072,0.307 -0.928,0.065 -1.757,0.174 -2.536,0.226 -1.553,0.129 -2.89,0.14 -4.226,0.276 -1.337,0.122 -2.699,0.22 -4.307,0.496 -0.8,0.144 -1.664,0.323 -2.621,0.543 -0.478,0.114 -0.979,0.232 -1.509,0.36 -0.527,0.138 -1.074,0.314 -1.655,0.489 0.864,-0.358 0.301,-0.29 -0.906,-0.033 -0.603,0.127 -1.367,0.302 -2.195,0.496 -0.822,0.206 -1.699,0.463 -2.544,0.691 -0.847,0.226 -1.655,0.441 -2.328,0.62 -0.666,0.196 -1.2,0.341 -1.507,0.398 -0.61,0.118 -0.317,-0.142 1.69,-1.014 4.551,-1.234 9.384,-2.406 14.362,-3.432 4.984,-0.999 10.125,-1.772 15.242,-2.317 5.119,-0.528 10.22,-0.714 15.101,-0.684 1.22,0.045 2.426,0.09 3.616,0.135 0.595,0.026 1.187,0.052 1.772,0.08 0.587,0.048 1.167,0.1 1.742,0.15 1.152,0.108 2.285,0.217 3.396,0.321 1.107,0.151 2.191,0.312 3.252,0.474 -0.585,-0.709 4.777,-0.521 11.139,0.609 0.798,0.118 1.604,0.282 2.418,0.453 0.813,0.17 1.636,0.342 2.456,0.515 0.408,0.089 0.82,0.168 1.224,0.267 0.404,0.102 0.807,0.206 1.206,0.305 0.799,0.206 1.586,0.408 2.352,0.604 0.384,0.101 0.761,0.199 1.134,0.295 0.367,0.112 0.729,0.22 1.082,0.327 0.712,0.212 1.391,0.418 2.031,0.612 0.64,0.199 1.247,0.367 1.796,0.558 0.548,0.189 1.05,0.364 1.494,0.518 l 0.57,-0.192 c 0.783,0.226 1.539,0.445 2.284,0.662 0.733,0.248 1.457,0.491 2.182,0.735 0.722,0.251 1.447,0.504 2.186,0.761 0.732,0.275 1.468,0.583 2.237,0.895 0.766,0.317 1.559,0.643 2.386,1.004 0.815,0.386 1.671,0.798 2.575,1.232 0.451,0.219 0.916,0.446 1.394,0.679 0.475,0.244 0.954,0.514 1.453,0.785 0.99,0.555 2.061,1.109 3.167,1.78 5.421,2.966 10.526,6.406 15.138,10.073 4.619,3.667 8.74,7.556 12.367,11.377 0.327,0.361 0.657,0.721 0.987,1.082 0.328,0.368 0.665,0.727 0.963,1.124 0.614,0.778 1.229,1.569 1.838,2.37 0.601,0.805 1.131,1.666 1.693,2.506 0.272,0.427 0.56,0.843 0.814,1.283 l 0.738,1.326 c 0.242,0.442 0.484,0.885 0.726,1.325 0.117,0.224 0.245,0.44 0.352,0.667 l 0.315,0.685 c 0.411,0.912 0.819,1.817 1.224,2.713 0.675,1.852 1.376,3.646 1.813,5.456 0.54,1.772 0.812,3.541 1.123,5.187 0.136,0.827 0.19,1.646 0.279,2.424 0.067,0.783 0.181,1.527 0.173,2.254 0.011,0.722 0.023,1.414 0.034,2.069 0.003,0.326 0.005,0.644 0.007,0.952 -0.004,0.309 -0.037,0.611 -0.054,0.9 -0.082,1.158 -0.169,2.155 -0.251,2.966 -0.304,-4.635 -1.033,-9.123 -2.193,-13.389 -1.158,-4.266 -2.74,-8.304 -4.659,-12.011 -0.506,-0.918 -1.006,-1.823 -1.499,-2.72 -0.555,-0.866 -1.103,-1.719 -1.646,-2.567 -0.138,-0.21 -0.269,-0.423 -0.412,-0.629 l -0.447,-0.601 c -0.298,-0.398 -0.592,-0.794 -0.887,-1.188 -0.3,-0.391 -0.595,-0.78 -0.889,-1.169 -0.311,-0.373 -0.631,-0.735 -0.948,-1.099 -2.47,-2.942 -5.269,-5.348 -8.078,-7.302 1.184,1.05 2.177,2.036 3.09,2.899 0.872,0.904 1.614,1.732 2.291,2.474 0.169,0.187 0.332,0.371 0.491,0.551 0.15,0.187 0.295,0.368 0.435,0.547 0.283,0.36 0.551,0.704 0.806,1.033 0.255,0.336 0.498,0.658 0.737,0.968 0.116,0.16 0.232,0.314 0.348,0.468 0.103,0.161 0.207,0.319 0.309,0.476 0.409,0.634 0.794,1.251 1.185,1.885 0.193,0.318 0.399,0.633 0.587,0.97 0.178,0.344 0.364,0.692 0.555,1.054 0.376,0.727 0.802,1.487 1.229,2.357 0.403,0.877 0.848,1.839 1.351,2.927 0,0 -0.708,-1.044 -1.415,-2.088 -0.177,-0.26 -0.352,-0.521 -0.517,-0.765 -0.181,-0.233 -0.35,-0.452 -0.493,-0.64 -0.288,-0.373 -0.479,-0.623 -0.479,-0.623 0,0 0.122,0.225 0.306,0.56 0.18,0.336 0.442,0.772 0.647,1.24 0.434,0.92 0.867,1.839 0.867,1.839 -0.708,-0.793 -0.495,0.035 -0.208,1.001 0.267,0.979 0.543,2.13 0.205,1.957 0,0 -0.096,-0.202 -0.264,-0.555 -0.169,-0.354 -0.394,-0.865 -0.739,-1.444 -0.327,-0.588 -0.707,-1.275 -1.117,-2.011 -0.195,-0.373 -0.434,-0.74 -0.674,-1.112 -0.239,-0.373 -0.484,-0.753 -0.724,-1.133 -0.243,-0.381 -0.485,-0.761 -0.723,-1.134 -0.254,-0.364 -0.517,-0.715 -0.762,-1.063 -0.498,-0.686 -0.962,-1.328 -1.359,-1.878 -0.856,-1.058 -1.428,-1.761 -1.428,-1.761 0.65,0.723 1.192,1.283 1.602,1.725 0.393,0.457 0.693,0.77 0.907,0.971 0.433,0.4 0.542,0.347 0.465,0.031 -0.076,-0.315 -0.337,-0.889 -0.638,-1.525 -0.32,-0.624 -0.714,-1.283 -0.98,-1.816 0,0 -0.309,-0.364 -0.773,-0.912 -0.446,-0.559 -1.131,-1.237 -1.783,-1.934 -0.666,-0.692 -1.302,-1.405 -1.84,-1.888 -0.522,-0.494 -0.87,-0.825 -0.87,-0.825 0.357,0.275 0.843,0.683 1.314,1.073 0.466,0.394 0.884,0.801 1.167,1.021 0.28,0.225 0.407,0.276 0.241,0 -0.084,-0.137 -0.239,-0.359 -0.485,-0.68 -0.123,-0.161 -0.267,-0.352 -0.444,-0.562 -0.182,-0.204 -0.391,-0.436 -0.625,-0.695 -0.568,-0.533 -1.166,-1.125 -1.783,-1.752 -0.619,-0.626 -1.314,-1.229 -1.993,-1.862 -0.344,-0.314 -0.69,-0.626 -1.035,-0.942 -0.344,-0.313 -0.724,-0.589 -1.085,-0.878 -0.73,-0.568 -1.462,-1.108 -2.181,-1.588 0,0 1.029,1.169 2.06,2.337 0.522,0.568 0.988,1.194 1.353,1.643 0.362,0.452 0.601,0.754 0.601,0.754 -1.569,-1.74 -3.291,-3.129 -4.983,-4.415 -0.877,-0.607 -1.748,-1.191 -2.618,-1.76 -0.429,-0.29 -0.879,-0.55 -1.328,-0.806 l -1.341,-0.772 -1.338,-0.771 c -0.456,-0.245 -0.915,-0.489 -1.375,-0.732 -0.92,-0.48 -1.826,-1.002 -2.764,-1.506 -0.946,-0.491 -1.897,-1.009 -2.855,-1.571 -0.474,-0.288 -0.971,-0.555 -1.467,-0.836 -0.496,-0.284 -0.996,-0.58 -1.499,-0.889 0,0 -0.755,-0.085 -1.51,-0.167 -0.759,-0.069 -1.519,-0.117 -1.519,-0.117 0,0 -0.5,-0.229 -1.25,-0.578 -0.749,-0.349 -1.744,-0.821 -2.771,-1.23 -1.019,-0.425 -2.038,-0.85 -2.801,-1.167 -0.776,-0.293 -1.293,-0.488 -1.293,-0.488 l 0.806,0.684 c 0,0 -0.623,-0.217 -1.562,-0.541 -0.467,-0.16 -1.012,-0.351 -1.599,-0.553 -0.291,-0.099 -0.595,-0.205 -0.902,-0.312 -0.311,-0.094 -0.628,-0.191 -0.944,-0.286 -1.267,-0.385 -2.531,-0.77 -3.48,-1.059 -0.96,-0.252 -1.601,-0.42 -1.601,-0.42 -1.369,-0.418 -2.431,-0.81 -3.291,-1.087 -0.494,-0.163 -0.908,-0.31 -1.271,-0.449 0.19,0.248 0.349,0.517 0.466,0.809 -0.795,2.488 -3.329,3.932 -3.74,6.398 -0.34,2.042 -0.115,4.491 0.209,6.593 0.602,3.911 3.061,7.969 4.172,12.26 0.887,3.418 0.559,6.54 1.116,10.268 0.181,0.578 0.857,0.621 0.986,1.259 -0.549,0.979 -0.121,2.898 -0.178,4.349 2.821,3.754 4.837,8.381 5.657,14.308 0.572,0.654 1.128,1.326 1.642,2.041 0.229,0.863 -0.619,1.281 -0.098,1.935 2.178,1.189 4.23,-1.396 6.599,-0.855 0.887,0.204 2.497,2.107 3.409,3.113 2.933,3.231 5.1,6.749 9.557,7.908 0.806,-0.394 1.108,-0.852 1.86,-1.025 4.966,-1.154 6.086,3.337 10.808,2.713 1.355,2.072 3.405,4.155 4.79,6.769 0.674,1.282 1.177,2.706 1.86,3.967 0.709,1.313 1.914,2.324 2.475,3.462 2.082,4.224 0.052,6.743 -2.405,8.768 -0.717,0.593 -1.31,1.499 -1.986,1.997 -1.017,0.747 -2.475,1.069 -3.409,1.876 -1.545,1.333 -1.987,3.474 -4.32,3.035 -0.393,1.165 -1.573,2.675 -1.442,4.231 0.104,1.243 1.382,2.404 1.854,3.803 0.814,2.411 0.713,4.362 0.158,6.119 1.288,-0.974 2.489,-1.903 3.629,-2.721 0.369,-0.257 0.713,-0.524 1.047,-0.785 0.337,-0.26 0.665,-0.512 0.981,-0.756 0.638,-0.486 1.237,-0.939 1.794,-1.36 1.068,-0.897 1.965,-1.666 2.619,-2.332 0.163,-0.168 0.312,-0.327 0.442,-0.483 0.125,-0.161 0.234,-0.315 0.328,-0.463 0.183,-0.298 0.299,-0.568 0.338,-0.818 0,0 -0.272,0.268 -0.546,0.534 -0.135,0.135 -0.272,0.268 -0.375,0.367 -0.101,0.103 -0.175,0.161 -0.175,0.161 0,0 0.096,-0.181 0.227,-0.474 0.13,-0.287 0.307,-0.668 0.484,-1.051 0.344,-0.756 0.689,-1.517 0.689,-1.517 l 0.871,0.327 c 0.434,-0.465 0.849,-0.993 1.297,-1.521 0.45,-0.525 0.918,-1.068 1.394,-1.625 0.247,-0.272 0.476,-0.56 0.703,-0.857 0.228,-0.293 0.458,-0.586 0.69,-0.881 0.459,-0.592 0.928,-1.186 1.377,-1.783 0.422,-0.617 0.837,-1.234 1.236,-1.84 0.389,-0.613 0.8,-1.189 1.108,-1.804 0.322,-0.607 0.619,-1.194 0.884,-1.758 0.26,-0.568 0.513,-1.096 0.658,-1.628 0,0 0.437,-0.588 1.093,-1.47 0.163,-0.22 0.343,-0.46 0.532,-0.713 0.193,-0.252 0.389,-0.523 0.568,-0.816 0.379,-0.579 0.78,-1.196 1.182,-1.813 0.202,-0.314 0.405,-0.624 0.605,-0.931 0.179,-0.317 0.353,-0.63 0.523,-0.932 0.342,-0.609 0.66,-1.176 0.934,-1.664 0.137,-0.243 0.263,-0.469 0.375,-0.669 0.097,-0.206 0.181,-0.384 0.252,-0.532 0.141,-0.293 0.222,-0.463 0.222,-0.463 -0.127,0.342 -0.256,0.69 -0.386,1.038 -0.146,0.344 -0.293,0.693 -0.443,1.041 -0.294,0.705 -0.582,1.427 -0.868,2.161 -0.301,0.729 -0.654,1.445 -0.975,2.183 -0.334,0.731 -0.636,1.486 -1.032,2.195 l -0.049,-0.397 c -0.384,0.669 -0.904,1.573 -1.497,2.607 -0.621,1.016 -1.376,2.118 -2.098,3.255 -0.768,1.11 -1.58,2.208 -2.286,3.241 -0.749,1.002 -1.435,1.906 -1.931,2.653 0,0 0.728,-0.787 1.459,-1.576 0.366,-0.394 0.735,-0.788 0.984,-1.106 0.256,-0.31 0.427,-0.518 0.427,-0.518 -0.67,1.042 -1.062,1.585 -1.189,1.851 -0.127,0.264 -0.011,0.236 0.23,0.052 0.5,-0.354 1.416,-1.402 1.877,-1.933 2.758,-4.181 3.65,-5.765 4.561,-7.008 0.442,-0.63 0.905,-1.167 1.397,-2.022 0.256,-0.422 0.54,-0.912 0.871,-1.511 0.162,-0.302 0.338,-0.631 0.531,-0.991 0.179,-0.367 0.348,-0.776 0.543,-1.218 0.139,-0.415 0.312,-0.92 0.488,-1.429 0.167,-0.51 0.361,-1.011 0.453,-1.455 0.214,-0.869 0.291,-1.39 -0.015,-0.851 0.194,-0.53 0.413,-1.179 0.649,-1.902 0.057,-0.183 0.117,-0.368 0.179,-0.558 0.047,-0.194 0.095,-0.394 0.145,-0.595 0.099,-0.405 0.199,-0.825 0.302,-1.255 0.467,-1.706 0.714,-3.631 1.025,-5.405 0.1,-0.896 0.195,-1.762 0.283,-2.556 0.096,-0.796 0.199,-1.52 0.233,-2.144 0.106,-1.246 0.255,-2.069 0.47,-2.165 -0.027,-0.396 -0.058,-0.545 -0.085,-0.904 0.357,0.381 0.707,0.999 1.048,1.826 0.169,0.416 0.337,0.883 0.502,1.4 0.082,0.257 0.167,0.529 0.243,0.814 0.058,0.284 0.119,0.579 0.182,0.883 0.499,2.446 0.826,5.661 0.603,9.281 -1.456,5.002 -3.504,9.346 -5.684,12.777"
       style="fill:#231f20;fill-opacity:1;fill-rule:nonzero;stroke:none"
       transform="matrix(1.3333333,0,0,-1.3333333,280.60347,703.22707)"
       clip-path="url(#clipPath214)" />
  </g>
</svg>
