<?xml version="1.0" encoding="UTF-8"?>
<!-- Created with Inkscape (http://www.inkscape.org/) -->

<svg
   version="1.1"
   id="svg1"
   width="298.61334"
   height="220.57597"
   viewBox="0 0 298.61334 220.57597"
   sodipodiDocname="logos Wing-Sanda.pdf"
   xmlnsInkscape="http://www.inkscape.org/namespaces/inkscape"
   xmlnsSodipodi="http://sodipodi.sourceforge.net/DTD/sodipodi-0.dtd"
   xmlns="http://www.w3.org/2000/svg"
   xmlnsSvg="http://www.w3.org/2000/svg">
  <defs
     id="defs1">
    <clipPath
       clipPathUnits="userSpaceOnUse"
       id="clipPath216">
      <path
         d="M 0,841.89 H 595.28 V 0 H 0 Z"
         transform="translate(-455.28911,-270.78121)"
         id="path216" />
    </clipPath>
    <clipPath
       clipPathUnits="userSpaceOnUse"
       id="clipPath218">
      <path
         d="M 0,841.89 H 595.28 V 0 H 0 Z"
         transform="translate(-491.09471,-273.32031)"
         id="path218" />
    </clipPath>
    <clipPath
       clipPathUnits="userSpaceOnUse"
       id="clipPath220">
      <path
         d="M 0,841.89 H 595.28 V 0 H 0 Z"
         transform="translate(-458.90821,-275.12211)"
         id="path220" />
    </clipPath>
    <clipPath
       clipPathUnits="userSpaceOnUse"
       id="clipPath222">
      <path
         d="M 0,841.89 H 595.28 V 0 H 0 Z"
         transform="translate(-465.44821,-273.42481)"
         id="path222" />
    </clipPath>
    <clipPath
       clipPathUnits="userSpaceOnUse"
       id="clipPath224">
      <path
         d="M 0,841.89 H 595.28 V 0 H 0 Z"
         transform="translate(-471.48141,-272.91021)"
         id="path224" />
    </clipPath>
    <clipPath
       clipPathUnits="userSpaceOnUse"
       id="clipPath226">
      <path
         d="M 0,841.89 H 595.28 V 0 H 0 Z"
         transform="translate(-491.59771,-284.626)"
         id="path226" />
    </clipPath>
    <clipPath
       clipPathUnits="userSpaceOnUse"
       id="clipPath228">
      <path
         d="M 0,841.89 H 595.28 V 0 H 0 Z"
         transform="translate(-484.35641,-274.6318)"
         id="path228" />
    </clipPath>
    <clipPath
       clipPathUnits="userSpaceOnUse"
       id="clipPath230">
      <path
         d="M 0,841.89 H 595.28 V 0 H 0 Z"
         transform="translate(-495.11911,-272.23441)"
         id="path230" />
    </clipPath>
    <clipPath
       clipPathUnits="userSpaceOnUse"
       id="clipPath232">
      <path
         d="M 0,841.89 H 595.28 V 0 H 0 Z"
         transform="translate(-381.66311,-273.74221)"
         id="path232" />
    </clipPath>
    <clipPath
       clipPathUnits="userSpaceOnUse"
       id="clipPath234">
      <path
         d="M 0,841.89 H 595.28 V 0 H 0 Z"
         transform="translate(-394.16211,-257.5078)"
         id="path234" />
    </clipPath>
    <clipPath
       clipPathUnits="userSpaceOnUse"
       id="clipPath236">
      <path
         d="M 0,841.89 H 595.28 V 0 H 0 Z"
         transform="translate(-405.50101,-277.33591)"
         id="path236" />
    </clipPath>
    <clipPath
       clipPathUnits="userSpaceOnUse"
       id="clipPath238">
      <path
         d="M 0,841.89 H 595.28 V 0 H 0 Z"
         transform="translate(-388.20121,-254.88481)"
         id="path238" />
    </clipPath>
    <clipPath
       clipPathUnits="userSpaceOnUse"
       id="clipPath240">
      <path
         d="M 0,841.89 H 595.28 V 0 H 0 Z"
         transform="translate(-399.79491,-257.5078)"
         id="path240" />
    </clipPath>
    <clipPath
       clipPathUnits="userSpaceOnUse"
       id="clipPath242">
      <path
         d="M 0,841.89 H 595.28 V 0 H 0 Z"
         transform="translate(-410.12791,-256.7695)"
         id="path242" />
    </clipPath>
    <clipPath
       clipPathUnits="userSpaceOnUse"
       id="clipPath244">
      <path
         d="M 0,841.89 H 595.28 V 0 H 0 Z"
         transform="translate(-413.34671,-260.12991)"
         id="path244" />
    </clipPath>
    <clipPath
       clipPathUnits="userSpaceOnUse"
       id="clipPath246">
      <path
         d="M 0,841.89 H 595.28 V 0 H 0 Z"
         id="path246" />
    </clipPath>
    <clipPath
       clipPathUnits="userSpaceOnUse"
       id="clipPath248">
      <path
         d="M 0,841.89 H 595.28 V 0 H 0 Z"
         transform="translate(-358.13961,-315.90921)"
         id="path248" />
    </clipPath>
    <clipPath
       clipPathUnits="userSpaceOnUse"
       id="clipPath250">
      <path
         d="M 0,841.89 H 595.28 V 0 H 0 Z"
         transform="translate(-371.90721,-313.04201)"
         id="path250" />
    </clipPath>
    <clipPath
       clipPathUnits="userSpaceOnUse"
       id="clipPath252">
      <path
         d="M 0,841.89 H 595.28 V 0 H 0 Z"
         transform="translate(-401.22461,-313.04201)"
         id="path252" />
    </clipPath>
    <clipPath
       clipPathUnits="userSpaceOnUse"
       id="clipPath254">
      <path
         d="M 0,841.89 H 595.28 V 0 H 0 Z"
         transform="translate(-428.85841,-320.89651)"
         id="path254" />
    </clipPath>
    <clipPath
       clipPathUnits="userSpaceOnUse"
       id="clipPath256">
      <path
         d="M 0,841.89 H 595.28 V 0 H 0 Z"
         transform="translate(-460.45901,-313.04201)"
         id="path256" />
    </clipPath>
    <clipPath
       clipPathUnits="userSpaceOnUse"
       id="clipPath258">
      <path
         d="M 0,841.89 H 595.28 V 0 H 0 Z"
         transform="translate(-504.53422,-313.04201)"
         id="path258" />
    </clipPath>
    <clipPath
       clipPathUnits="userSpaceOnUse"
       id="clipPath260">
      <path
         d="M 0,841.89 H 595.28 V 0 H 0 Z"
         transform="translate(-535.92292,-313.04201)"
         id="path260" />
    </clipPath>
    <clipPath
       clipPathUnits="userSpaceOnUse"
       id="clipPath262">
      <path
         d="M 0,841.89 H 595.28 V 0 H 0 Z"
         transform="translate(-352.71581,-185.96781)"
         id="path262" />
    </clipPath>
    <clipPath
       clipPathUnits="userSpaceOnUse"
       id="clipPath264">
      <path
         d="M 0,841.89 H 595.28 V 0 H 0 Z"
         transform="translate(-386.01461,-177.61431)"
         id="path264" />
    </clipPath>
    <clipPath
       clipPathUnits="userSpaceOnUse"
       id="clipPath266">
      <path
         d="M 0,841.89 H 595.28 V 0 H 0 Z"
         transform="translate(-395.60741,-177.61431)"
         id="path266" />
    </clipPath>
    <clipPath
       clipPathUnits="userSpaceOnUse"
       id="clipPath268">
      <path
         d="M 0,841.89 H 595.28 V 0 H 0 Z"
         transform="translate(-411.71291,-176.542)"
         id="path268" />
    </clipPath>
    <clipPath
       clipPathUnits="userSpaceOnUse"
       id="clipPath270">
      <path
         d="M 0,841.89 H 595.28 V 0 H 0 Z"
         transform="translate(-442.12111,-176.5557)"
         id="path270" />
    </clipPath>
    <clipPath
       clipPathUnits="userSpaceOnUse"
       id="clipPath272">
      <path
         d="M 0,841.89 H 595.28 V 0 H 0 Z"
         transform="translate(-465.88671,-177.61431)"
         id="path272" />
    </clipPath>
    <clipPath
       clipPathUnits="userSpaceOnUse"
       id="clipPath274">
      <path
         d="M 0,841.89 H 595.28 V 0 H 0 Z"
         transform="translate(-480.45121,-186.24021)"
         id="path274" />
    </clipPath>
    <clipPath
       clipPathUnits="userSpaceOnUse"
       id="clipPath276">
      <path
         d="M 0,841.89 H 595.28 V 0 H 0 Z"
         transform="translate(-506.62211,-177.61431)"
         id="path276" />
    </clipPath>
  </defs>
  <sodipodiNamedview
     id="namedview1"
     pagecolor="#ffffff"
     bordercolor="#000000"
     borderopacity="0.25"
     inkscapeShowpageshadow="2"
     inkscapePageopacity="0.0"
     inkscapePagecheckerboard="0"
     inkscapeDeskcolor="#d1d1d1" />
  <g
     id="layer-MC0"
     inkscapeGroupmode="layer"
     inkscapeLabel="Capa 1"
     transform="translate(-432.04132,-679.19471)">
    <path
       id="path215"
       d="m 0,0 c -2.843,1.248 -5.266,2.229 -7.448,2.977 3.094,0.778 2.895,2.482 2.518,5.79 -4.111,-0.722 -5.699,-3.598 -6.169,-4.714 -3.058,0.742 -5.778,0.943 -8.816,0.698 -6.137,-0.49 -8.853,-7.865 -8.853,-7.865 C -23.638,0.899 -7.342,0.082 0,0"
       style="fill:#000000;fill-opacity:1;fill-rule:nonzero;stroke:none"
       transform="matrix(1.3333333,0,0,-1.3333333,607.05213,761.4784)"
       clip-path="url(#clipPath216)" />
    <path
       id="path217"
       d="m 0,0 c -1.308,-0.163 -25.882,-7.53 -27.524,-7.493 -1.645,0.038 -29.204,3.724 -30.813,-2.831 0,0 -1.509,-5.489 15.691,-4.915 16.718,0.556 22.123,1.304 45.162,13.567 C 3.178,-1.318 3.521,-0.737 3.319,0 2.414,0.574 1.309,0.164 0,0"
       style="fill:#000000;fill-opacity:1;fill-rule:nonzero;stroke:none"
       transform="matrix(1.3333333,0,0,-1.3333333,654.79293,758.09293)"
       clip-path="url(#clipPath218)" />
    <path
       id="path219"
       d="M 0,0 C 6.338,0.327 7.142,2.868 7.443,5.903 1.007,5.334 -0.604,5.817 -2.011,5.9 -3.419,5.982 -4.928,4.835 -4.928,4.835 -4.928,4.835 -6.335,-0.327 0,0"
       style="fill:#000000;fill-opacity:1;fill-rule:nonzero;stroke:none"
       transform="matrix(1.3333333,0,0,-1.3333333,611.8776,755.69053)"
       clip-path="url(#clipPath220)" />
    <path
       id="path221"
       d="M 0,0 C 0,0 -1.409,0.715 -3.121,0 -4.828,-0.715 -4.628,-2.234 -4.628,-2.234 -1.207,-4.038 0,0 0,0"
       style="fill:#000000;fill-opacity:1;fill-rule:nonzero;stroke:none"
       transform="matrix(1.3333333,0,0,-1.3333333,620.5976,757.9536)"
       clip-path="url(#clipPath222)" />
    <path
       id="path223"
       d="M 0,0 C 0.263,1.744 0.905,2.869 -3.419,2.198 V 0 c 0,0 2.615,-0.572 3.419,0"
       style="fill:#000000;fill-opacity:1;fill-rule:nonzero;stroke:none"
       transform="matrix(1.3333333,0,0,-1.3333333,628.64187,758.63973)"
       clip-path="url(#clipPath224)" />
    <path
       id="path225"
       d="m 0,0 c 0.704,0.247 0,1.64 0,1.64 h -2.111 c -1.711,0 -15.492,-7.046 -16.195,-7.538 -0.704,-0.492 -0.905,-2.949 -0.905,-2.949 0.705,0.08 2.214,0.491 2.815,0.708 C -15.792,-7.923 -0.703,-0.245 0,0"
       style="fill:#000000;fill-opacity:1;fill-rule:nonzero;stroke:none"
       transform="matrix(1.3333333,0,0,-1.3333333,655.4636,743.01867)"
       clip-path="url(#clipPath226)" />
    <path
       id="path227"
       d="m 0,0 c 4.124,2.215 15.69,6.391 18.104,7.128 2.415,0.736 1.509,3.276 -1.207,3.031 C 14.182,9.914 2.012,3.441 0.905,2.622 -0.2,1.802 0,0 0,0"
       style="fill:#000000;fill-opacity:1;fill-rule:nonzero;stroke:none"
       transform="matrix(1.3333333,0,0,-1.3333333,645.80853,756.34427)"
       clip-path="url(#clipPath228)" />
    <path
       id="path229"
       d="M 0,0 C 3.317,0.021 9.152,0.923 9.756,6.248 5.43,4.854 4.302,3.761 -1.019,2.874 -1.019,2.874 1.91,1.746 0,0"
       style="fill:#000000;fill-opacity:1;fill-rule:nonzero;stroke:none"
       transform="matrix(1.3333333,0,0,-1.3333333,660.1588,759.5408)"
       clip-path="url(#clipPath230)" />
    <path
       id="path231"
       d="m 0,0 c 0.401,4.437 4.527,2.854 6.132,3.184 1.603,0.328 3.523,2.622 4.126,3.441 0.605,0.817 2.515,0.655 4.828,0.658 1.509,1.48 4.93,2.536 1.712,3.438 C 13.579,11.623 4.226,8.263 0.503,7.283 -3.218,6.305 -5.532,2.773 -5.834,-2.094 -6.135,-6.96 -4.526,-8.287 -4.526,-8.287 -2.816,-8.206 -0.402,-4.436 0,0"
       style="fill:#000000;fill-opacity:1;fill-rule:nonzero;stroke:none"
       transform="matrix(1.3333333,0,0,-1.3333333,508.88413,757.5304)"
       clip-path="url(#clipPath232)" />
    <path
       id="path233"
       d="m 0,0 c 1.983,1.065 2.688,2.212 4.197,2.867 1.509,0.655 0.604,0.655 -1.61,0.737 -2.212,0.083 -3.218,0.246 -3.52,1.475 -0.301,1.23 -2.816,0.082 -4.224,0.655 -1.407,0.575 2.816,4.18 2.514,5.655 1.307,0.9 10.663,-0.657 12.673,0.41 0,0 -9.051,0.828 -14.482,4.674 -1.509,0.486 -3.119,-2.627 -3.421,-4.674 C -8.175,9.75 -9.28,7.783 -9.884,5.653 -10.487,3.522 -9.189,1.803 -6.367,1.393 -3.547,0.982 -2.083,1.883 0,0"
       style="fill:#000000;fill-opacity:1;fill-rule:nonzero;stroke:none"
       transform="matrix(1.3333333,0,0,-1.3333333,525.54947,779.17627)"
       clip-path="url(#clipPath234)" />
    <path
       id="path235"
       d="M 0,0 C 4.627,2.047 5.934,-0.41 5.33,-1.705 4.727,-2.999 0,-2.704 -0.201,-3.911 c -0.202,-1.207 3.419,0.14 10.963,0 7.543,-0.143 -1.207,-3.873 -4.276,-3.628 -3.067,0.247 -4.374,0.327 -4.675,-0.737 -0.302,-1.066 -0.503,-2.212 -3.12,-3.605 3.622,-1.311 5.232,0 12.474,2.212 7.241,2.212 8.648,7.441 8.648,7.441 C 8.449,3.521 7.386,5.409 3.52,6.718 1.006,6.963 -2.012,3.932 -3.421,2.385 -3.621,0.672 -6.84,-2.704 -6.84,-2.704 c 0,0 2.214,0.655 6.84,2.704"
       style="fill:#000000;fill-opacity:1;fill-rule:nonzero;stroke:none"
       transform="matrix(1.3333333,0,0,-1.3333333,540.668,752.7388)"
       clip-path="url(#clipPath236)" />
    <path
       id="path237"
       d="M 0,0 C 0,0 7.297,-4.998 11.594,-3.932 15.892,-2.867 13.275,1.722 0,0"
       style="fill:#000000;fill-opacity:1;fill-rule:nonzero;stroke:none"
       transform="matrix(1.3333333,0,0,-1.3333333,517.6016,782.6736)"
       clip-path="url(#clipPath238)" />
    <path
       id="path239"
       d="M 0,0 C 0.877,-0.164 3.292,-0.574 4.397,1.803 0.877,2.13 0,0 0,0"
       style="fill:#000000;fill-opacity:1;fill-rule:nonzero;stroke:none"
       transform="matrix(1.3333333,0,0,-1.3333333,533.05987,779.17627)"
       clip-path="url(#clipPath240)" />
    <path
       id="path241"
       d="M 0,0 C -0.937,-1.83 2.413,-1.065 2.615,0 2.815,1.066 0.503,0.983 0,0"
       style="fill:#000000;fill-opacity:1;fill-rule:nonzero;stroke:none"
       transform="matrix(1.3333333,0,0,-1.3333333,546.8372,780.16067)"
       clip-path="url(#clipPath242)" />
    <path
       id="path243"
       d="M 0,0 C 0,0 0.903,-2.314 1.91,-2.593 2.916,-2.868 1.809,0.409 0,0"
       style="fill:#000000;fill-opacity:1;fill-rule:nonzero;stroke:none"
       transform="matrix(1.3333333,0,0,-1.3333333,551.12893,775.68013)"
       clip-path="url(#clipPath244)" />
    <path
       id="path245"
       d="M 543.164,306.612 H 328.857 v 21.948 h 214.307 z m 0,-49.635 c -6.127,-1.5 -22.401,-6.473 -30.578,-18.479 -8.718,-0.654 -39.562,14.313 -59.545,17.261 -11.668,0.875 -18.774,-3.386 -17.969,-4.588 0.804,-1.202 23.54,-25.78 55.222,-34.63 30.632,-8.558 30.143,-0.057 52.87,5.651 V 196.877 H 328.857 v 6.037 c 14.106,-1.828 21.674,2.088 31.583,6.745 10.461,4.915 63.568,39.49 73.625,45.226 -6.035,10.323 -10.46,9.341 -10.46,9.341 l -3.218,-1.802 c 2.214,-10.323 -7.04,-8.522 -11.868,-8.687 -6.036,-8.192 -16.898,-4.258 -19.916,-0.817 -20.92,-3.771 -40.434,-14.257 -52.906,-20.977 -1.368,7.2 -4.585,11.825 -6.84,14.305 v 56.431 h 214.307 z m 10e-4,-85.981 H 328.857 v 21.946 H 543.164 Z M 324.031,332.494 v -25.882 -3.933 -105.802 -3.935 -25.88 h 223.96 l -10e-4,25.88 v 3.935 105.802 3.933 25.882 z"
       style="fill:#000000;fill-opacity:1;fill-rule:nonzero;stroke:none"
       transform="matrix(1.3333333,0,0,-1.3333333,0,1122.52)"
       clip-path="url(#clipPath246)" />
    <path
       id="path247"
       d="m 0,0 -3.425,0.559 c -0.584,-0.788 -1.282,-1.412 -2.095,-1.868 -0.812,-0.459 -1.723,-0.794 -2.735,-0.999 -1.011,-0.208 -2.347,-0.31 -4.01,-0.31 -0.496,0 -0.832,0.018 -1.006,0.056 -0.173,0.04 -0.287,0.091 -0.343,0.158 -0.055,0.063 -0.084,0.238 -0.084,0.523 v 7.07 c 0,0.268 0.068,0.462 0.204,0.582 0.136,0.122 0.351,0.212 0.648,0.271 0.159,0.031 0.547,0.045 1.164,0.045 h 1.11 V 7.8 H -23.245 V 6.087 h 1.37 c 0.504,0 0.865,-0.029 1.08,-0.088 0.216,-0.06 0.384,-0.154 0.501,-0.284 0.116,-0.131 0.176,-0.343 0.176,-0.64 v -7.01 c 0,-0.272 -0.06,-0.464 -0.176,-0.572 -0.117,-0.109 -0.306,-0.197 -0.564,-0.263 -0.259,-0.065 -0.642,-0.097 -1.148,-0.097 h -1.239 V -4.58 h 19.82 z"
       style="fill:#000000;fill-opacity:1;fill-rule:nonzero;stroke:none"
       transform="matrix(1.3333333,0,0,-1.3333333,477.51947,701.30773)"
       clip-path="url(#clipPath248)" />
    <path
       id="path249"
       d="m 0,0 h -1.377 c -0.52,0 -0.912,0.034 -1.173,0.106 -0.211,0.046 -0.359,0.123 -0.445,0.23 -0.088,0.108 -0.132,0.349 -0.132,0.721 v 6.849 c 0,0.343 0.053,0.576 0.159,0.697 0.105,0.121 0.268,0.21 0.486,0.267 0.215,0.057 0.658,0.084 1.329,0.084 H 0 v 1.713 H -12.674 V 8.954 h 1.16 c 0.676,0 1.1,-0.022 1.275,-0.07 0.25,-0.066 0.426,-0.16 0.533,-0.281 C -9.6,8.482 -9.547,8.229 -9.547,7.845 V 0.967 C -9.547,0.642 -9.6,0.426 -9.706,0.315 -9.813,0.206 -9.977,0.125 -10.201,0.075 -10.426,0.026 -10.906,0 -11.642,0 h -1.032 V -1.713 H 0 Z"
       style="fill:#000000;fill-opacity:1;fill-rule:nonzero;stroke:none"
       transform="matrix(1.3333333,0,0,-1.3333333,495.87627,705.13067)"
       clip-path="url(#clipPath250)" />
    <path
       id="path251"
       d="M 0,0 H -0.869 C -1.66,0 -2.183,0.022 -2.441,0.07 -2.7,0.118 -2.893,0.216 -3.017,0.363 -3.092,0.465 -3.128,0.721 -3.128,1.135 V 3.753 H 6.327 V 1.135 C 6.327,0.721 6.273,0.458 6.169,0.347 6.062,0.235 5.87,0.147 5.591,0.089 5.313,0.029 4.782,0 4,0 H 3.163 V -1.713 H 15.874 V 0 h -0.746 c -0.868,0 -1.422,0.026 -1.665,0.075 -0.24,0.05 -0.422,0.136 -0.538,0.258 -0.119,0.12 -0.177,0.388 -0.177,0.802 v 6.71 c 0,0.409 0.046,0.667 0.139,0.776 0.094,0.109 0.257,0.192 0.492,0.249 0.236,0.057 0.713,0.084 1.434,0.084 h 1.061 v 1.713 H 3.163 V 8.954 h 0.984 c 0.808,0 1.33,-0.027 1.564,-0.079 C 5.948,8.82 6.116,8.724 6.215,8.582 6.287,8.48 6.327,8.288 6.327,8.004 V 5.687 h -9.455 v 2.158 c 0,0.384 0.05,0.634 0.149,0.751 0.098,0.114 0.264,0.204 0.498,0.265 0.237,0.062 0.673,0.093 1.315,0.093 H 0 v 1.713 H -12.674 V 8.954 h 1.161 c 0.65,0 1.085,-0.029 1.31,-0.088 0.224,-0.059 0.391,-0.152 0.497,-0.281 0.104,-0.127 0.157,-0.399 0.157,-0.821 V 1.039 C -9.549,0.678 -9.602,0.444 -9.706,0.336 -9.812,0.229 -10.009,0.147 -10.296,0.089 -10.583,0.029 -11.089,0 -11.813,0 h -0.861 V -1.713 H 0 Z"
       style="fill:#000000;fill-opacity:1;fill-rule:nonzero;stroke:none"
       transform="matrix(1.3333333,0,0,-1.3333333,534.96613,705.13067)"
       clip-path="url(#clipPath252)" />
    <path
       id="path253"
       d="m 0,0 c 1.168,0.703 2.736,1.055 4.71,1.055 1.178,0 2.27,-0.165 3.275,-0.497 1.005,-0.331 1.8,-0.832 2.392,-1.499 0.59,-0.668 0.883,-1.494 0.883,-2.476 0,-1.397 -0.691,-2.512 -2.065,-3.345 -1.167,-0.7 -2.724,-1.048 -4.672,-1.048 -1.935,0 -3.493,0.348 -4.672,1.048 -1.363,0.816 -2.045,1.925 -2.045,3.326 0,1.403 0.73,2.546 2.194,3.436 m -4.969,-8.271 c 2.446,-1.006 5.584,-1.509 9.418,-1.509 2.902,0 5.381,0.264 7.434,0.794 2.054,0.53 3.664,1.283 4.829,2.258 1.168,0.977 1.751,2.095 1.751,3.354 0,1.876 -1.274,3.412 -3.825,4.607 C 12.09,2.428 8.753,3.024 4.635,3.024 0.453,3.024 -2.93,2.425 -5.516,1.223 c -2.587,-1.201 -3.88,-2.744 -3.88,-4.631 0,-2.029 1.475,-3.651 4.427,-4.863"
       style="fill:#000000;fill-opacity:1;fill-rule:nonzero;stroke:none"
       transform="matrix(1.3333333,0,0,-1.3333333,571.8112,694.658)"
       clip-path="url(#clipPath254)" />
    <path
       id="path255"
       d="m 0,0 h -1.24 c -0.592,0 -1.008,0.029 -1.248,0.089 -0.242,0.058 -0.408,0.14 -0.501,0.238 -0.092,0.102 -0.137,0.335 -0.137,0.702 v 6.382 l 9.64,-9.124 h 5.342 v 9.576 c 0,0.372 0.046,0.615 0.146,0.727 0.1,0.113 0.274,0.201 0.526,0.266 0.255,0.065 0.677,0.098 1.269,0.098 h 1.182 v 1.713 H 4.279 V 8.954 H 5.545 C 6.153,8.954 6.563,8.927 6.772,8.87 6.984,8.813 7.153,8.714 7.274,8.573 7.362,8.478 7.406,8.24 7.406,7.863 v -4.42 l -7.612,7.224 H -10.739 V 8.954 h 1.387 c 0.493,0 0.845,-0.027 1.056,-0.084 0.209,-0.057 0.376,-0.147 0.497,-0.274 0.126,-0.129 0.188,-0.328 0.188,-0.599 V 0.896 C -7.611,0.648 -7.68,0.463 -7.815,0.336 -7.951,0.213 -8.135,0.125 -8.36,0.075 -8.591,0.026 -9.013,0 -9.63,0 h -1.109 V -1.713 H 0 Z"
       style="fill:#000000;fill-opacity:1;fill-rule:nonzero;stroke:none"
       transform="matrix(1.3333333,0,0,-1.3333333,613.94533,705.13067)"
       clip-path="url(#clipPath256)" />
    <path
       id="path257"
       d="m 0,0 h -1.062 c -0.694,0 -1.157,0.024 -1.385,0.074 -0.23,0.05 -0.408,0.135 -0.53,0.252 -0.127,0.118 -0.188,0.331 -0.188,0.636 V 2.209 L 0.773,3.832 5.343,0.728 C 5.725,0.463 5.919,0.293 5.919,0.222 5.919,0.158 5.814,0.103 5.61,0.063 5.406,0.021 4.826,0 3.871,0 H 3.349 V -1.713 H 16.451 V 0 h -0.502 c -0.746,0 -1.315,0.054 -1.713,0.159 -0.298,0.077 -0.771,0.322 -1.415,0.737 l -7.484,4.821 6.275,2.589 c 0.484,0.2 0.878,0.346 1.182,0.435 0.304,0.089 0.56,0.146 0.771,0.173 0.211,0.027 0.588,0.04 1.136,0.04 h 0.391 v 1.713 H 3.349 V 8.954 h 1.042 c 0.583,0 0.946,-0.02 1.088,-0.062 C 5.622,8.851 5.694,8.789 5.694,8.707 5.694,8.664 5.654,8.616 5.582,8.56 5.507,8.505 5.289,8.396 4.931,8.235 L -3.165,4.653 V 7.95 c 0,0.326 0.066,0.548 0.195,0.668 0.13,0.116 0.345,0.209 0.643,0.274 0.185,0.042 0.682,0.062 1.488,0.062 H 0 v 1.713 H -12.675 V 8.954 h 1.069 c 0.648,0 1.099,-0.031 1.347,-0.093 0.25,-0.061 0.429,-0.156 0.542,-0.279 0.112,-0.126 0.17,-0.371 0.17,-0.737 V 1.082 C -9.547,0.698 -9.599,0.456 -9.698,0.355 -9.81,0.229 -9.991,0.141 -10.241,0.084 -10.49,0.027 -10.982,0 -11.72,0 h -0.955 V -1.713 H 0 Z"
       style="fill:#000000;fill-opacity:1;fill-rule:nonzero;stroke:none"
       transform="matrix(1.3333333,0,0,-1.3333333,672.71227,705.13067)"
       clip-path="url(#clipPath258)" />
    <path
       id="path259"
       d="m 0,0 h -1.377 c -0.52,0 -0.914,0.034 -1.173,0.106 -0.212,0.046 -0.359,0.123 -0.445,0.23 -0.091,0.108 -0.132,0.349 -0.132,0.721 v 6.849 c 0,0.343 0.051,0.576 0.159,0.697 0.103,0.121 0.264,0.21 0.482,0.267 0.217,0.057 0.662,0.084 1.331,0.084 H 0 v 1.713 H -12.674 V 8.954 h 1.16 c 0.673,0 1.098,-0.022 1.275,-0.07 0.248,-0.066 0.426,-0.16 0.533,-0.281 C -9.6,8.482 -9.547,8.229 -9.547,7.845 V 0.967 C -9.547,0.642 -9.6,0.426 -9.706,0.315 -9.813,0.206 -9.979,0.125 -10.201,0.075 -10.428,0.026 -10.908,0 -11.646,0 h -1.028 V -1.713 H 0 Z"
       style="fill:#000000;fill-opacity:1;fill-rule:nonzero;stroke:none"
       transform="matrix(1.3333333,0,0,-1.3333333,714.56387,705.13067)"
       clip-path="url(#clipPath260)" />
    <path
       id="path261"
       d="m 0,0 c 0.129,-0.118 0.278,-0.379 0.451,-0.782 l 4.025,-9.239 h 4.047 l 2.24,4.815 2.094,-4.815 h 3.895 l 3.986,9.102 c 0.198,0.442 0.367,0.732 0.508,0.871 0.142,0.139 0.318,0.239 0.527,0.307 0.213,0.065 0.561,0.099 1.052,0.099 V 2.024 H 15.992 V 0.358 h 0.656 c 0.431,0 0.723,-0.036 0.878,-0.108 0.155,-0.072 0.232,-0.177 0.232,-0.315 0,-0.076 -0.082,-0.314 -0.245,-0.717 l -2.197,-5.57 -2.128,5.57 c -0.126,0.333 -0.191,0.555 -0.191,0.665 0,0.149 0.091,0.274 0.271,0.371 0.128,0.07 0.413,0.104 0.85,0.104 h 0.609 V 2.024 H 7.208 V 0.358 C 7.63,0.346 7.952,0.282 8.176,0.163 8.398,0.046 8.566,-0.154 8.68,-0.436 8.721,-0.54 8.755,-0.612 8.782,-0.651 l 0.82,-1.794 -2.104,-4.438 -2.404,6.232 c -0.113,0.287 -0.168,0.474 -0.168,0.56 0,0.098 0.045,0.185 0.136,0.264 0.09,0.077 0.197,0.127 0.322,0.151 0.125,0.022 0.44,0.034 0.948,0.034 v 1.666 h -7.92 V 0.358 C -1.114,0.365 -0.765,0.334 -0.535,0.272 -0.309,0.207 -0.13,0.116 0,0"
       style="fill:#000000;fill-opacity:1;fill-rule:nonzero;stroke:none"
       transform="matrix(1.3333333,0,0,-1.3333333,470.28773,874.56293)"
       clip-path="url(#clipPath262)" />
    <path
       id="path263"
       d="m 0,0 h -0.954 c -0.36,0 -0.632,0.034 -0.814,0.103 -0.145,0.046 -0.248,0.122 -0.308,0.224 -0.06,0.103 -0.091,0.336 -0.091,0.699 v 6.665 c 0,0.334 0.036,0.561 0.11,0.679 0.074,0.118 0.185,0.204 0.336,0.259 0.149,0.056 0.457,0.083 0.921,0.083 H 0 v 1.666 H -8.781 V 8.712 h 0.803 c 0.467,0 0.762,-0.024 0.881,-0.07 0.174,-0.063 0.297,-0.154 0.371,-0.272 0.074,-0.118 0.11,-0.365 0.11,-0.738 V 0.941 c 0,-0.317 -0.036,-0.528 -0.11,-0.636 C -6.8,0.198 -6.914,0.121 -7.07,0.071 -7.227,0.023 -7.56,0 -8.068,0 H -8.781 V -1.667 H 0 Z"
       style="fill:#000000;fill-opacity:1;fill-rule:nonzero;stroke:none"
       transform="matrix(1.3333333,0,0,-1.3333333,514.68613,885.70093)"
       clip-path="url(#clipPath264)" />
    <path
       id="path265"
       d="M 0,0 H -0.859 C -1.271,0 -1.557,0.027 -1.724,0.085 -1.892,0.142 -2.006,0.221 -2.071,0.318 -2.135,0.416 -2.167,0.643 -2.167,1.001 V 7.21 l 6.68,-8.877 H 8.217 V 7.65 c 0,0.362 0.032,0.597 0.1,0.708 0.068,0.109 0.191,0.194 0.366,0.259 0.174,0.062 0.467,0.095 0.878,0.095 h 0.819 v 1.666 H 2.966 V 8.712 H 3.843 C 4.265,8.712 4.549,8.685 4.694,8.629 4.84,8.574 4.957,8.479 5.043,8.34 5.103,8.247 5.134,8.018 5.134,7.65 v -4.3 l -5.278,7.028 H -7.442 V 8.712 h 0.963 c 0.341,0 0.583,-0.027 0.731,-0.083 0.144,-0.055 0.261,-0.144 0.345,-0.267 0.086,-0.124 0.128,-0.317 0.128,-0.583 V 0.871 C -5.275,0.629 -5.321,0.449 -5.416,0.327 -5.51,0.207 -5.635,0.121 -5.795,0.071 -5.952,0.023 -6.245,0 -6.672,0 h -0.77 V -1.667 H 0 Z"
       style="fill:#000000;fill-opacity:1;fill-rule:nonzero;stroke:none"
       transform="matrix(1.3333333,0,0,-1.3333333,527.47653,885.70093)"
       clip-path="url(#clipPath266)" />
    <path
       id="path267"
       d="m 0,0 c 1.348,-0.534 2.845,-0.802 4.483,-0.802 0.938,0 1.84,0.089 2.706,0.268 0.87,0.178 1.707,0.445 2.513,0.804 l 0.685,-0.865 h 2.64 V 3.18 c 0,0.315 0.039,0.529 0.117,0.642 0.077,0.112 0.195,0.194 0.355,0.245 0.159,0.052 0.452,0.079 0.883,0.079 H 15.04 V 5.828 H 6.256 V 4.146 h 1.02 C 7.739,4.146 8.053,4.119 8.211,4.067 8.37,4.016 8.497,3.934 8.592,3.817 8.651,3.736 8.683,3.544 8.683,3.239 V 2.799 C 8.683,2.449 8.579,2.168 8.372,1.962 8.166,1.755 7.786,1.567 7.23,1.399 6.677,1.233 6.09,1.149 5.471,1.149 4.593,1.149 3.791,1.317 3.059,1.655 2.328,1.991 1.736,2.509 1.286,3.205 0.835,3.901 0.61,4.724 0.61,5.674 0.61,6.536 0.814,7.273 1.228,7.881 1.641,8.486 2.201,8.949 2.911,9.265 3.619,9.583 4.384,9.739 5.2,9.739 5.776,9.739 6.368,9.651 6.973,9.472 7.578,9.295 8.116,9.047 8.585,8.729 9.055,8.414 9.692,7.819 10.5,6.942 l 2.373,0.519 -1.624,3.989 H 9.445 L 8.967,10.915 C 8.41,11.139 7.737,11.32 6.952,11.454 6.165,11.589 5.378,11.656 4.586,11.656 2.954,11.656 1.44,11.387 0.044,10.851 -1.352,10.312 -2.44,9.576 -3.215,8.644 -3.993,7.711 -4.383,6.654 -4.383,5.476 c 0,-1.193 0.393,-2.269 1.18,-3.23 C -2.416,1.284 -1.35,0.535 0,0"
       style="fill:#000000;fill-opacity:1;fill-rule:nonzero;stroke:none"
       transform="matrix(1.3333333,0,0,-1.3333333,548.95053,887.13067)"
       clip-path="url(#clipPath268)" />
    <path
       id="path269"
       d="m 0,0 c 1.368,-0.543 2.901,-0.815 4.593,-0.815 2.036,0 3.884,0.359 5.542,1.078 1.075,0.467 2.26,1.293 3.557,2.479 L 11.693,3.734 C 10.85,2.929 9.849,2.288 8.688,1.81 7.759,1.424 6.791,1.231 5.786,1.231 4.204,1.231 2.925,1.676 1.949,2.569 0.974,3.46 0.487,4.527 0.487,5.765 c 0,0.811 0.212,1.519 0.638,2.123 0.425,0.605 1.001,1.061 1.728,1.373 0.725,0.31 1.505,0.465 2.34,0.465 1.142,0 2.205,-0.295 3.186,-0.888 0.703,-0.431 1.456,-1.163 2.257,-2.193 l 2.398,0.465 -1.765,4.327 H 9.438 l -0.424,-0.52 c -1.29,0.485 -2.788,0.726 -4.497,0.726 -1.685,0 -3.212,-0.264 -4.582,-0.794 C -1.436,10.319 -2.519,9.582 -3.313,8.635 -4.108,7.688 -4.506,6.638 -4.506,5.487 -4.506,4.33 -4.097,3.264 -3.28,2.284 -2.464,1.306 -1.372,0.544 0,0"
       style="fill:#000000;fill-opacity:1;fill-rule:nonzero;stroke:none"
       transform="matrix(1.3333333,0,0,-1.3333333,589.4948,887.1124)"
       clip-path="url(#clipPath270)" />
    <path
       id="path271"
       d="M 0,0 H -0.602 C -1.15,0 -1.512,0.022 -1.692,0.068 -1.872,0.114 -2.004,0.209 -2.09,0.353 -2.142,0.45 -2.167,0.701 -2.167,1.104 V 3.651 H 4.385 V 1.104 C 4.385,0.701 4.349,0.445 4.274,0.336 4.203,0.228 4.069,0.142 3.875,0.085 3.682,0.027 3.314,0 2.772,0 H 2.191 v -1.667 h 8.811 L 11.001,0 H 10.485 C 9.883,0 9.497,0.023 9.331,0.071 9.163,0.121 9.038,0.205 8.957,0.324 8.875,0.44 8.834,0.701 8.834,1.104 v 6.528 c 0,0.397 0.034,0.649 0.098,0.756 0.065,0.106 0.176,0.186 0.34,0.241 0.164,0.056 0.497,0.083 0.994,0.083 h 0.735 v 1.666 H 2.191 V 8.712 H 2.876 C 3.435,8.712 3.795,8.686 3.959,8.633 4.122,8.581 4.237,8.487 4.308,8.348 4.358,8.25 4.385,8.063 4.385,7.787 V 5.534 h -6.552 v 2.098 c 0,0.373 0.034,0.617 0.103,0.73 0.069,0.113 0.183,0.199 0.346,0.259 0.163,0.062 0.467,0.091 0.909,0.091 H 0 v 1.666 H -8.782 V 8.712 h 0.803 c 0.451,0 0.754,-0.029 0.909,-0.086 0.155,-0.059 0.27,-0.149 0.343,-0.272 0.075,-0.125 0.111,-0.392 0.111,-0.799 V 1.01 C -6.616,0.658 -6.652,0.43 -6.727,0.327 -6.8,0.225 -6.937,0.142 -7.136,0.085 -7.335,0.027 -7.685,0 -8.187,0 H -8.782 V -1.667 H 0 Z"
       style="fill:#000000;fill-opacity:1;fill-rule:nonzero;stroke:none"
       transform="matrix(1.3333333,0,0,-1.3333333,621.18227,885.70093)"
       clip-path="url(#clipPath272)" />
    <path
       id="path273"
       d="m 0,0 c 0.155,-0.059 0.267,-0.149 0.336,-0.272 0.07,-0.124 0.102,-0.399 0.102,-0.826 v -4.653 c 0,-0.923 0.132,-1.618 0.395,-2.09 0.262,-0.472 0.722,-0.921 1.379,-1.343 0.659,-0.423 1.427,-0.749 2.305,-0.975 0.876,-0.228 1.867,-0.341 2.976,-0.341 1.574,0 2.936,0.223 4.082,0.668 1.148,0.446 1.984,1.072 2.508,1.88 0.377,0.591 0.567,1.325 0.567,2.201 v 4.748 c 0,0.393 0.035,0.631 0.104,0.717 0.094,0.134 0.245,0.232 0.45,0.302 0.14,0.046 0.496,0.07 1.07,0.07 h 0.581 V 1.752 H 9.428 V 0.086 h 0.694 c 0.491,0 0.796,-0.018 0.918,-0.052 0.171,-0.046 0.311,-0.127 0.411,-0.242 0.079,-0.087 0.117,-0.231 0.117,-0.432 v -4.835 c 0,-0.818 -0.119,-1.402 -0.355,-1.757 -0.236,-0.354 -0.631,-0.647 -1.182,-0.876 -0.552,-0.23 -1.18,-0.345 -1.887,-0.345 -0.707,0 -1.307,0.104 -1.8,0.313 -0.497,0.211 -0.868,0.519 -1.115,0.919 -0.244,0.406 -0.367,1.016 -0.367,1.832 v 4.386 c 0,0.363 0.039,0.604 0.117,0.722 0.077,0.118 0.199,0.207 0.367,0.272 0.168,0.062 0.451,0.095 0.845,0.095 H 7.055 V 1.752 H -1.728 V 0.086 h 0.826 C -0.456,0.086 -0.154,0.057 0,0"
       style="fill:#000000;fill-opacity:1;fill-rule:nonzero;stroke:none"
       transform="matrix(1.3333333,0,0,-1.3333333,640.6016,874.19973)"
       clip-path="url(#clipPath274)" />
    <path
       id="path275"
       d="M 0,0 H -0.858 C -1.271,0 -1.557,0.027 -1.725,0.085 -1.89,0.142 -2.006,0.221 -2.071,0.318 -2.135,0.416 -2.167,0.643 -2.167,1.001 V 7.21 l 6.683,-8.877 h 3.7 L 8.215,7.65 c 0,0.362 0.034,0.597 0.102,0.708 0.07,0.109 0.189,0.194 0.366,0.259 0.174,0.062 0.468,0.095 0.878,0.095 h 0.821 v 1.666 H 2.967 V 8.712 H 3.843 C 4.265,8.712 4.549,8.685 4.695,8.629 4.841,8.574 4.957,8.479 5.043,8.34 5.103,8.247 5.134,8.018 5.134,7.65 v -4.3 l -5.277,7.028 H -7.441 V 8.712 h 0.962 c 0.341,0 0.584,-0.027 0.73,-0.083 0.145,-0.055 0.261,-0.144 0.347,-0.267 0.084,-0.124 0.129,-0.317 0.129,-0.583 V 0.871 C -5.273,0.629 -5.32,0.449 -5.414,0.327 -5.511,0.207 -5.636,0.121 -5.793,0.071 -5.951,0.023 -6.246,0 -6.673,0 h -0.768 l 10e-4,-1.667 h 7.441 z"
       style="fill:#000000;fill-opacity:1;fill-rule:nonzero;stroke:none"
       transform="matrix(1.3333333,0,0,-1.3333333,675.49613,885.70093)"
       clip-path="url(#clipPath276)" />
  </g>
</svg>
